%TF.GenerationSoftware,KiCad,Pcbnew,8.0.1-8.0.1-1~ubuntu22.04.1*%
%TF.CreationDate,2024-03-22T15:25:23-03:00*%
%TF.ProjectId,linefollower,6c696e65-666f-46c6-9c6f-7765722e6b69,rev?*%
%TF.SameCoordinates,Original*%
%TF.FileFunction,Drillmap*%
%TF.FilePolarity,Positive*%
%FSLAX45Y45*%
G04 Gerber Fmt 4.5, Leading zero omitted, Abs format (unit mm)*
G04 Created by KiCad (PCBNEW 8.0.1-8.0.1-1~ubuntu22.04.1) date 2024-03-22 15:25:23*
%MOMM*%
%LPD*%
G01*
G04 APERTURE LIST*
%ADD10C,0.200000*%
%ADD11C,0.100000*%
G04 APERTURE END LIST*
D10*
X18007016Y-12852767D02*
X19698463Y-12237131D01*
X16000000Y-10907495D02*
G75*
G02*
X18007015Y-12852768I-1000000J-3039735D01*
G01*
X11992983Y-12852767D02*
G75*
G02*
X14000000Y-10907495I3007017J-1094465D01*
G01*
X14000000Y-11776927D02*
X16000000Y-11776927D01*
X14000000Y-10907495D02*
X14000000Y-11776927D01*
X16000000Y-11776927D02*
X16000000Y-10907495D01*
X10301537Y-12237131D02*
G75*
G02*
X19698463Y-12237131I4698463J-1710101D01*
G01*
X10301537Y-12237131D02*
X11992983Y-12852767D01*
D11*
X11292017Y-11711281D02*
X11332017Y-11751281D01*
X11332017Y-11711281D02*
X11292017Y-11751281D01*
X11298189Y-11882719D02*
X11338189Y-11922719D01*
X11338189Y-11882719D02*
X11298189Y-11922719D01*
X11337154Y-11470586D02*
X11377154Y-11510586D01*
X11377154Y-11470586D02*
X11337154Y-11510586D01*
X11512976Y-10878634D02*
X11552976Y-10918634D01*
X11552976Y-10878634D02*
X11512976Y-10918634D01*
X11857414Y-11032135D02*
X11897414Y-11072135D01*
X11897414Y-11032135D02*
X11857414Y-11072135D01*
X12144256Y-10467341D02*
X12184256Y-10507341D01*
X12184256Y-10467341D02*
X12144256Y-10507341D01*
X12294748Y-10601745D02*
X12334748Y-10641745D01*
X12334748Y-10601745D02*
X12294748Y-10641745D01*
X12584302Y-10167600D02*
X12624302Y-10207600D01*
X12624302Y-10167600D02*
X12584302Y-10207600D01*
X13012070Y-10134136D02*
X13052070Y-10174136D01*
X13052070Y-10134136D02*
X13012070Y-10174136D01*
X13246023Y-9934465D02*
X13286023Y-9974465D01*
X13286023Y-9934465D02*
X13246023Y-9974465D01*
X13393406Y-9760789D02*
X13433406Y-9800789D01*
X13433406Y-9760789D02*
X13393406Y-9800789D01*
X13796781Y-9749629D02*
X13836781Y-9789629D01*
X13836781Y-9749629D02*
X13796781Y-9789629D01*
X13995332Y-9504415D02*
X14035332Y-9544415D01*
X14035332Y-9504415D02*
X13995332Y-9544415D01*
X14208765Y-9177038D02*
X14248765Y-9217038D01*
X14248765Y-9177038D02*
X14208765Y-9217038D01*
X14290158Y-10959459D02*
X14330158Y-10999459D01*
X14330158Y-10959459D02*
X14290158Y-10999459D01*
X14585000Y-10775000D02*
X14625000Y-10815000D01*
X14625000Y-10775000D02*
X14585000Y-10815000D01*
X14593662Y-11233260D02*
X14633662Y-11273260D01*
X14633662Y-11233260D02*
X14593662Y-11273260D01*
X14599565Y-10664493D02*
X14639565Y-10704493D01*
X14639565Y-10664493D02*
X14599565Y-10704493D01*
X14600512Y-10558320D02*
X14640512Y-10598320D01*
X14640512Y-10558320D02*
X14600512Y-10598320D01*
X14648706Y-9226259D02*
X14688706Y-9266259D01*
X14688706Y-9226259D02*
X14648706Y-9266259D01*
X14661830Y-9549021D02*
X14701830Y-9589021D01*
X14701830Y-9549021D02*
X14661830Y-9589021D01*
X14706667Y-10508740D02*
X14746667Y-10548740D01*
X14746667Y-10508740D02*
X14706667Y-10548740D01*
X14774337Y-10271512D02*
X14814337Y-10311512D01*
X14814337Y-10271512D02*
X14774337Y-10311512D01*
X14874311Y-10273837D02*
X14914311Y-10313837D01*
X14914311Y-10273837D02*
X14874311Y-10313837D01*
X14983481Y-10270496D02*
X15023481Y-10310496D01*
X15023481Y-10270496D02*
X14983481Y-10310496D01*
X15089342Y-10271715D02*
X15129342Y-10311715D01*
X15129342Y-10271715D02*
X15089342Y-10311715D01*
X15112758Y-9592350D02*
X15152758Y-9632350D01*
X15152758Y-9592350D02*
X15112758Y-9632350D01*
X15195975Y-10269967D02*
X15235975Y-10309967D01*
X15235975Y-10269967D02*
X15195975Y-10309967D01*
X15294585Y-10396331D02*
X15334585Y-10436331D01*
X15334585Y-10396331D02*
X15294585Y-10436331D01*
X15299030Y-10268219D02*
X15339030Y-10308219D01*
X15339030Y-10268219D02*
X15299030Y-10308219D01*
X15323692Y-10497719D02*
X15363692Y-10537719D01*
X15363692Y-10497719D02*
X15323692Y-10537719D01*
X15323746Y-9350053D02*
X15363746Y-9390053D01*
X15363746Y-9350053D02*
X15323746Y-9390053D01*
X15339236Y-10642756D02*
X15379236Y-10682756D01*
X15379236Y-10642756D02*
X15339236Y-10682756D01*
X15377661Y-10773862D02*
X15417661Y-10813862D01*
X15417661Y-10773862D02*
X15377661Y-10813862D01*
X15403100Y-11230993D02*
X15443100Y-11270993D01*
X15443100Y-11230993D02*
X15403100Y-11270993D01*
X15858496Y-9633667D02*
X15898496Y-9673667D01*
X15898496Y-9633667D02*
X15858496Y-9673667D01*
X15961633Y-9427394D02*
X16001633Y-9467394D01*
X16001633Y-9427394D02*
X15961633Y-9467394D01*
X16447598Y-9808475D02*
X16487598Y-9848475D01*
X16487598Y-9808475D02*
X16447598Y-9848475D01*
X16606673Y-9621431D02*
X16646673Y-9661431D01*
X16646673Y-9621431D02*
X16606673Y-9661431D01*
X17146748Y-10061946D02*
X17186748Y-10101946D01*
X17186748Y-10061946D02*
X17146748Y-10101946D01*
X17249885Y-9876650D02*
X17289885Y-9916650D01*
X17289885Y-9876650D02*
X17249885Y-9916650D01*
X17547954Y-10495335D02*
X17587954Y-10535335D01*
X17587954Y-10495335D02*
X17547954Y-10535335D01*
X17760054Y-10266919D02*
X17800054Y-10306919D01*
X17800054Y-10266919D02*
X17760054Y-10306919D01*
X18110754Y-10910821D02*
X18150754Y-10950821D01*
X18150754Y-10910821D02*
X18110754Y-10950821D01*
X18264585Y-10694060D02*
X18304585Y-10734060D01*
X18304585Y-10694060D02*
X18264585Y-10734060D01*
X18378819Y-11410690D02*
X18418819Y-11450690D01*
X18418819Y-11410690D02*
X18378819Y-11450690D01*
X18647862Y-11715304D02*
X18687862Y-11755304D01*
X18687862Y-11715304D02*
X18647862Y-11755304D01*
X18682985Y-11295317D02*
X18722985Y-11335317D01*
X18722985Y-11295317D02*
X18682985Y-11335317D01*
X19027777Y-11782896D02*
X19067777Y-11822896D01*
X19067777Y-11782896D02*
X19027777Y-11822896D01*
D10*
X10552314Y-13174251D02*
X10552314Y-12974251D01*
X10552314Y-12974251D02*
X10599933Y-12974251D01*
X10599933Y-12974251D02*
X10628504Y-12983775D01*
X10628504Y-12983775D02*
X10647552Y-13002823D01*
X10647552Y-13002823D02*
X10657075Y-13021870D01*
X10657075Y-13021870D02*
X10666599Y-13059965D01*
X10666599Y-13059965D02*
X10666599Y-13088537D01*
X10666599Y-13088537D02*
X10657075Y-13126632D01*
X10657075Y-13126632D02*
X10647552Y-13145680D01*
X10647552Y-13145680D02*
X10628504Y-13164727D01*
X10628504Y-13164727D02*
X10599933Y-13174251D01*
X10599933Y-13174251D02*
X10552314Y-13174251D01*
X10752314Y-13174251D02*
X10752314Y-13040918D01*
X10752314Y-13079013D02*
X10761837Y-13059965D01*
X10761837Y-13059965D02*
X10771361Y-13050442D01*
X10771361Y-13050442D02*
X10790409Y-13040918D01*
X10790409Y-13040918D02*
X10809456Y-13040918D01*
X10876123Y-13174251D02*
X10876123Y-13040918D01*
X10876123Y-12974251D02*
X10866599Y-12983775D01*
X10866599Y-12983775D02*
X10876123Y-12993299D01*
X10876123Y-12993299D02*
X10885647Y-12983775D01*
X10885647Y-12983775D02*
X10876123Y-12974251D01*
X10876123Y-12974251D02*
X10876123Y-12993299D01*
X10999933Y-13174251D02*
X10980885Y-13164727D01*
X10980885Y-13164727D02*
X10971361Y-13145680D01*
X10971361Y-13145680D02*
X10971361Y-12974251D01*
X11104694Y-13174251D02*
X11085647Y-13164727D01*
X11085647Y-13164727D02*
X11076123Y-13145680D01*
X11076123Y-13145680D02*
X11076123Y-12974251D01*
X11333266Y-13174251D02*
X11333266Y-12974251D01*
X11333266Y-12974251D02*
X11399933Y-13117108D01*
X11399933Y-13117108D02*
X11466599Y-12974251D01*
X11466599Y-12974251D02*
X11466599Y-13174251D01*
X11647552Y-13174251D02*
X11647552Y-13069489D01*
X11647552Y-13069489D02*
X11638028Y-13050442D01*
X11638028Y-13050442D02*
X11618980Y-13040918D01*
X11618980Y-13040918D02*
X11580885Y-13040918D01*
X11580885Y-13040918D02*
X11561837Y-13050442D01*
X11647552Y-13164727D02*
X11628504Y-13174251D01*
X11628504Y-13174251D02*
X11580885Y-13174251D01*
X11580885Y-13174251D02*
X11561837Y-13164727D01*
X11561837Y-13164727D02*
X11552313Y-13145680D01*
X11552313Y-13145680D02*
X11552313Y-13126632D01*
X11552313Y-13126632D02*
X11561837Y-13107585D01*
X11561837Y-13107585D02*
X11580885Y-13098061D01*
X11580885Y-13098061D02*
X11628504Y-13098061D01*
X11628504Y-13098061D02*
X11647552Y-13088537D01*
X11742790Y-13040918D02*
X11742790Y-13240918D01*
X11742790Y-13050442D02*
X11761837Y-13040918D01*
X11761837Y-13040918D02*
X11799933Y-13040918D01*
X11799933Y-13040918D02*
X11818980Y-13050442D01*
X11818980Y-13050442D02*
X11828504Y-13059965D01*
X11828504Y-13059965D02*
X11838028Y-13079013D01*
X11838028Y-13079013D02*
X11838028Y-13136156D01*
X11838028Y-13136156D02*
X11828504Y-13155204D01*
X11828504Y-13155204D02*
X11818980Y-13164727D01*
X11818980Y-13164727D02*
X11799933Y-13174251D01*
X11799933Y-13174251D02*
X11761837Y-13174251D01*
X11761837Y-13174251D02*
X11742790Y-13164727D01*
X11923742Y-13155204D02*
X11933266Y-13164727D01*
X11933266Y-13164727D02*
X11923742Y-13174251D01*
X11923742Y-13174251D02*
X11914218Y-13164727D01*
X11914218Y-13164727D02*
X11923742Y-13155204D01*
X11923742Y-13155204D02*
X11923742Y-13174251D01*
X11923742Y-13050442D02*
X11933266Y-13059965D01*
X11933266Y-13059965D02*
X11923742Y-13069489D01*
X11923742Y-13069489D02*
X11914218Y-13059965D01*
X11914218Y-13059965D02*
X11923742Y-13050442D01*
X11923742Y-13050442D02*
X11923742Y-13069489D01*
D11*
X10251537Y-13482767D02*
X10291537Y-13522767D01*
X10291537Y-13482767D02*
X10251537Y-13522767D01*
D10*
X10590409Y-13394251D02*
X10609456Y-13394251D01*
X10609456Y-13394251D02*
X10628504Y-13403775D01*
X10628504Y-13403775D02*
X10638028Y-13413299D01*
X10638028Y-13413299D02*
X10647552Y-13432346D01*
X10647552Y-13432346D02*
X10657075Y-13470442D01*
X10657075Y-13470442D02*
X10657075Y-13518061D01*
X10657075Y-13518061D02*
X10647552Y-13556156D01*
X10647552Y-13556156D02*
X10638028Y-13575204D01*
X10638028Y-13575204D02*
X10628504Y-13584727D01*
X10628504Y-13584727D02*
X10609456Y-13594251D01*
X10609456Y-13594251D02*
X10590409Y-13594251D01*
X10590409Y-13594251D02*
X10571361Y-13584727D01*
X10571361Y-13584727D02*
X10561837Y-13575204D01*
X10561837Y-13575204D02*
X10552314Y-13556156D01*
X10552314Y-13556156D02*
X10542790Y-13518061D01*
X10542790Y-13518061D02*
X10542790Y-13470442D01*
X10542790Y-13470442D02*
X10552314Y-13432346D01*
X10552314Y-13432346D02*
X10561837Y-13413299D01*
X10561837Y-13413299D02*
X10571361Y-13403775D01*
X10571361Y-13403775D02*
X10590409Y-13394251D01*
X10742790Y-13575204D02*
X10752314Y-13584727D01*
X10752314Y-13584727D02*
X10742790Y-13594251D01*
X10742790Y-13594251D02*
X10733266Y-13584727D01*
X10733266Y-13584727D02*
X10742790Y-13575204D01*
X10742790Y-13575204D02*
X10742790Y-13594251D01*
X10923742Y-13460918D02*
X10923742Y-13594251D01*
X10876123Y-13384727D02*
X10828504Y-13527585D01*
X10828504Y-13527585D02*
X10952314Y-13527585D01*
X11066599Y-13394251D02*
X11085647Y-13394251D01*
X11085647Y-13394251D02*
X11104695Y-13403775D01*
X11104695Y-13403775D02*
X11114218Y-13413299D01*
X11114218Y-13413299D02*
X11123742Y-13432346D01*
X11123742Y-13432346D02*
X11133266Y-13470442D01*
X11133266Y-13470442D02*
X11133266Y-13518061D01*
X11133266Y-13518061D02*
X11123742Y-13556156D01*
X11123742Y-13556156D02*
X11114218Y-13575204D01*
X11114218Y-13575204D02*
X11104695Y-13584727D01*
X11104695Y-13584727D02*
X11085647Y-13594251D01*
X11085647Y-13594251D02*
X11066599Y-13594251D01*
X11066599Y-13594251D02*
X11047552Y-13584727D01*
X11047552Y-13584727D02*
X11038028Y-13575204D01*
X11038028Y-13575204D02*
X11028504Y-13556156D01*
X11028504Y-13556156D02*
X11018980Y-13518061D01*
X11018980Y-13518061D02*
X11018980Y-13470442D01*
X11018980Y-13470442D02*
X11028504Y-13432346D01*
X11028504Y-13432346D02*
X11038028Y-13413299D01*
X11038028Y-13413299D02*
X11047552Y-13403775D01*
X11047552Y-13403775D02*
X11066599Y-13394251D01*
X11257075Y-13394251D02*
X11276123Y-13394251D01*
X11276123Y-13394251D02*
X11295171Y-13403775D01*
X11295171Y-13403775D02*
X11304694Y-13413299D01*
X11304694Y-13413299D02*
X11314218Y-13432346D01*
X11314218Y-13432346D02*
X11323742Y-13470442D01*
X11323742Y-13470442D02*
X11323742Y-13518061D01*
X11323742Y-13518061D02*
X11314218Y-13556156D01*
X11314218Y-13556156D02*
X11304694Y-13575204D01*
X11304694Y-13575204D02*
X11295171Y-13584727D01*
X11295171Y-13584727D02*
X11276123Y-13594251D01*
X11276123Y-13594251D02*
X11257075Y-13594251D01*
X11257075Y-13594251D02*
X11238028Y-13584727D01*
X11238028Y-13584727D02*
X11228504Y-13575204D01*
X11228504Y-13575204D02*
X11218980Y-13556156D01*
X11218980Y-13556156D02*
X11209456Y-13518061D01*
X11209456Y-13518061D02*
X11209456Y-13470442D01*
X11209456Y-13470442D02*
X11218980Y-13432346D01*
X11218980Y-13432346D02*
X11228504Y-13413299D01*
X11228504Y-13413299D02*
X11238028Y-13403775D01*
X11238028Y-13403775D02*
X11257075Y-13394251D01*
X11409456Y-13594251D02*
X11409456Y-13460918D01*
X11409456Y-13479965D02*
X11418980Y-13470442D01*
X11418980Y-13470442D02*
X11438028Y-13460918D01*
X11438028Y-13460918D02*
X11466599Y-13460918D01*
X11466599Y-13460918D02*
X11485647Y-13470442D01*
X11485647Y-13470442D02*
X11495171Y-13489489D01*
X11495171Y-13489489D02*
X11495171Y-13594251D01*
X11495171Y-13489489D02*
X11504694Y-13470442D01*
X11504694Y-13470442D02*
X11523742Y-13460918D01*
X11523742Y-13460918D02*
X11552313Y-13460918D01*
X11552313Y-13460918D02*
X11571361Y-13470442D01*
X11571361Y-13470442D02*
X11580885Y-13489489D01*
X11580885Y-13489489D02*
X11580885Y-13594251D01*
X11676123Y-13594251D02*
X11676123Y-13460918D01*
X11676123Y-13479965D02*
X11685647Y-13470442D01*
X11685647Y-13470442D02*
X11704694Y-13460918D01*
X11704694Y-13460918D02*
X11733266Y-13460918D01*
X11733266Y-13460918D02*
X11752314Y-13470442D01*
X11752314Y-13470442D02*
X11761837Y-13489489D01*
X11761837Y-13489489D02*
X11761837Y-13594251D01*
X11761837Y-13489489D02*
X11771361Y-13470442D01*
X11771361Y-13470442D02*
X11790409Y-13460918D01*
X11790409Y-13460918D02*
X11818980Y-13460918D01*
X11818980Y-13460918D02*
X11838028Y-13470442D01*
X11838028Y-13470442D02*
X11847552Y-13489489D01*
X11847552Y-13489489D02*
X11847552Y-13594251D01*
X12238028Y-13384727D02*
X12066599Y-13641870D01*
X12495171Y-13394251D02*
X12514218Y-13394251D01*
X12514218Y-13394251D02*
X12533266Y-13403775D01*
X12533266Y-13403775D02*
X12542790Y-13413299D01*
X12542790Y-13413299D02*
X12552314Y-13432346D01*
X12552314Y-13432346D02*
X12561837Y-13470442D01*
X12561837Y-13470442D02*
X12561837Y-13518061D01*
X12561837Y-13518061D02*
X12552314Y-13556156D01*
X12552314Y-13556156D02*
X12542790Y-13575204D01*
X12542790Y-13575204D02*
X12533266Y-13584727D01*
X12533266Y-13584727D02*
X12514218Y-13594251D01*
X12514218Y-13594251D02*
X12495171Y-13594251D01*
X12495171Y-13594251D02*
X12476123Y-13584727D01*
X12476123Y-13584727D02*
X12466599Y-13575204D01*
X12466599Y-13575204D02*
X12457076Y-13556156D01*
X12457076Y-13556156D02*
X12447552Y-13518061D01*
X12447552Y-13518061D02*
X12447552Y-13470442D01*
X12447552Y-13470442D02*
X12457076Y-13432346D01*
X12457076Y-13432346D02*
X12466599Y-13413299D01*
X12466599Y-13413299D02*
X12476123Y-13403775D01*
X12476123Y-13403775D02*
X12495171Y-13394251D01*
X12647552Y-13575204D02*
X12657076Y-13584727D01*
X12657076Y-13584727D02*
X12647552Y-13594251D01*
X12647552Y-13594251D02*
X12638028Y-13584727D01*
X12638028Y-13584727D02*
X12647552Y-13575204D01*
X12647552Y-13575204D02*
X12647552Y-13594251D01*
X12780885Y-13394251D02*
X12799933Y-13394251D01*
X12799933Y-13394251D02*
X12818980Y-13403775D01*
X12818980Y-13403775D02*
X12828504Y-13413299D01*
X12828504Y-13413299D02*
X12838028Y-13432346D01*
X12838028Y-13432346D02*
X12847552Y-13470442D01*
X12847552Y-13470442D02*
X12847552Y-13518061D01*
X12847552Y-13518061D02*
X12838028Y-13556156D01*
X12838028Y-13556156D02*
X12828504Y-13575204D01*
X12828504Y-13575204D02*
X12818980Y-13584727D01*
X12818980Y-13584727D02*
X12799933Y-13594251D01*
X12799933Y-13594251D02*
X12780885Y-13594251D01*
X12780885Y-13594251D02*
X12761837Y-13584727D01*
X12761837Y-13584727D02*
X12752314Y-13575204D01*
X12752314Y-13575204D02*
X12742790Y-13556156D01*
X12742790Y-13556156D02*
X12733266Y-13518061D01*
X12733266Y-13518061D02*
X12733266Y-13470442D01*
X12733266Y-13470442D02*
X12742790Y-13432346D01*
X12742790Y-13432346D02*
X12752314Y-13413299D01*
X12752314Y-13413299D02*
X12761837Y-13403775D01*
X12761837Y-13403775D02*
X12780885Y-13394251D01*
X13038028Y-13594251D02*
X12923742Y-13594251D01*
X12980885Y-13594251D02*
X12980885Y-13394251D01*
X12980885Y-13394251D02*
X12961837Y-13422823D01*
X12961837Y-13422823D02*
X12942790Y-13441870D01*
X12942790Y-13441870D02*
X12923742Y-13451394D01*
X13218980Y-13394251D02*
X13123742Y-13394251D01*
X13123742Y-13394251D02*
X13114218Y-13489489D01*
X13114218Y-13489489D02*
X13123742Y-13479965D01*
X13123742Y-13479965D02*
X13142790Y-13470442D01*
X13142790Y-13470442D02*
X13190409Y-13470442D01*
X13190409Y-13470442D02*
X13209457Y-13479965D01*
X13209457Y-13479965D02*
X13218980Y-13489489D01*
X13218980Y-13489489D02*
X13228504Y-13508537D01*
X13228504Y-13508537D02*
X13228504Y-13556156D01*
X13228504Y-13556156D02*
X13218980Y-13575204D01*
X13218980Y-13575204D02*
X13209457Y-13584727D01*
X13209457Y-13584727D02*
X13190409Y-13594251D01*
X13190409Y-13594251D02*
X13142790Y-13594251D01*
X13142790Y-13594251D02*
X13123742Y-13584727D01*
X13123742Y-13584727D02*
X13114218Y-13575204D01*
X13295171Y-13394251D02*
X13428504Y-13394251D01*
X13428504Y-13394251D02*
X13342790Y-13594251D01*
X13495171Y-13394251D02*
X13495171Y-13432346D01*
X13571361Y-13394251D02*
X13571361Y-13432346D01*
X13866600Y-13670442D02*
X13857076Y-13660918D01*
X13857076Y-13660918D02*
X13838028Y-13632346D01*
X13838028Y-13632346D02*
X13828504Y-13613299D01*
X13828504Y-13613299D02*
X13818980Y-13584727D01*
X13818980Y-13584727D02*
X13809457Y-13537108D01*
X13809457Y-13537108D02*
X13809457Y-13499013D01*
X13809457Y-13499013D02*
X13818980Y-13451394D01*
X13818980Y-13451394D02*
X13828504Y-13422823D01*
X13828504Y-13422823D02*
X13838028Y-13403775D01*
X13838028Y-13403775D02*
X13857076Y-13375204D01*
X13857076Y-13375204D02*
X13866600Y-13365680D01*
X14028504Y-13460918D02*
X14028504Y-13594251D01*
X13980885Y-13384727D02*
X13933266Y-13527585D01*
X13933266Y-13527585D02*
X14057076Y-13527585D01*
X14142790Y-13594251D02*
X14180885Y-13594251D01*
X14180885Y-13594251D02*
X14199933Y-13584727D01*
X14199933Y-13584727D02*
X14209457Y-13575204D01*
X14209457Y-13575204D02*
X14228504Y-13546632D01*
X14228504Y-13546632D02*
X14238028Y-13508537D01*
X14238028Y-13508537D02*
X14238028Y-13432346D01*
X14238028Y-13432346D02*
X14228504Y-13413299D01*
X14228504Y-13413299D02*
X14218980Y-13403775D01*
X14218980Y-13403775D02*
X14199933Y-13394251D01*
X14199933Y-13394251D02*
X14161838Y-13394251D01*
X14161838Y-13394251D02*
X14142790Y-13403775D01*
X14142790Y-13403775D02*
X14133266Y-13413299D01*
X14133266Y-13413299D02*
X14123742Y-13432346D01*
X14123742Y-13432346D02*
X14123742Y-13479965D01*
X14123742Y-13479965D02*
X14133266Y-13499013D01*
X14133266Y-13499013D02*
X14142790Y-13508537D01*
X14142790Y-13508537D02*
X14161838Y-13518061D01*
X14161838Y-13518061D02*
X14199933Y-13518061D01*
X14199933Y-13518061D02*
X14218980Y-13508537D01*
X14218980Y-13508537D02*
X14228504Y-13499013D01*
X14228504Y-13499013D02*
X14238028Y-13479965D01*
X14476123Y-13594251D02*
X14476123Y-13394251D01*
X14561838Y-13594251D02*
X14561838Y-13489489D01*
X14561838Y-13489489D02*
X14552314Y-13470442D01*
X14552314Y-13470442D02*
X14533266Y-13460918D01*
X14533266Y-13460918D02*
X14504695Y-13460918D01*
X14504695Y-13460918D02*
X14485647Y-13470442D01*
X14485647Y-13470442D02*
X14476123Y-13479965D01*
X14685647Y-13594251D02*
X14666600Y-13584727D01*
X14666600Y-13584727D02*
X14657076Y-13575204D01*
X14657076Y-13575204D02*
X14647552Y-13556156D01*
X14647552Y-13556156D02*
X14647552Y-13499013D01*
X14647552Y-13499013D02*
X14657076Y-13479965D01*
X14657076Y-13479965D02*
X14666600Y-13470442D01*
X14666600Y-13470442D02*
X14685647Y-13460918D01*
X14685647Y-13460918D02*
X14714219Y-13460918D01*
X14714219Y-13460918D02*
X14733266Y-13470442D01*
X14733266Y-13470442D02*
X14742790Y-13479965D01*
X14742790Y-13479965D02*
X14752314Y-13499013D01*
X14752314Y-13499013D02*
X14752314Y-13556156D01*
X14752314Y-13556156D02*
X14742790Y-13575204D01*
X14742790Y-13575204D02*
X14733266Y-13584727D01*
X14733266Y-13584727D02*
X14714219Y-13594251D01*
X14714219Y-13594251D02*
X14685647Y-13594251D01*
X14866600Y-13594251D02*
X14847552Y-13584727D01*
X14847552Y-13584727D02*
X14838028Y-13565680D01*
X14838028Y-13565680D02*
X14838028Y-13394251D01*
X15018981Y-13584727D02*
X14999933Y-13594251D01*
X14999933Y-13594251D02*
X14961838Y-13594251D01*
X14961838Y-13594251D02*
X14942790Y-13584727D01*
X14942790Y-13584727D02*
X14933266Y-13565680D01*
X14933266Y-13565680D02*
X14933266Y-13489489D01*
X14933266Y-13489489D02*
X14942790Y-13470442D01*
X14942790Y-13470442D02*
X14961838Y-13460918D01*
X14961838Y-13460918D02*
X14999933Y-13460918D01*
X14999933Y-13460918D02*
X15018981Y-13470442D01*
X15018981Y-13470442D02*
X15028504Y-13489489D01*
X15028504Y-13489489D02*
X15028504Y-13508537D01*
X15028504Y-13508537D02*
X14933266Y-13527585D01*
X15104695Y-13584727D02*
X15123742Y-13594251D01*
X15123742Y-13594251D02*
X15161838Y-13594251D01*
X15161838Y-13594251D02*
X15180885Y-13584727D01*
X15180885Y-13584727D02*
X15190409Y-13565680D01*
X15190409Y-13565680D02*
X15190409Y-13556156D01*
X15190409Y-13556156D02*
X15180885Y-13537108D01*
X15180885Y-13537108D02*
X15161838Y-13527585D01*
X15161838Y-13527585D02*
X15133266Y-13527585D01*
X15133266Y-13527585D02*
X15114219Y-13518061D01*
X15114219Y-13518061D02*
X15104695Y-13499013D01*
X15104695Y-13499013D02*
X15104695Y-13489489D01*
X15104695Y-13489489D02*
X15114219Y-13470442D01*
X15114219Y-13470442D02*
X15133266Y-13460918D01*
X15133266Y-13460918D02*
X15161838Y-13460918D01*
X15161838Y-13460918D02*
X15180885Y-13470442D01*
X15257076Y-13670442D02*
X15266600Y-13660918D01*
X15266600Y-13660918D02*
X15285647Y-13632346D01*
X15285647Y-13632346D02*
X15295171Y-13613299D01*
X15295171Y-13613299D02*
X15304695Y-13584727D01*
X15304695Y-13584727D02*
X15314219Y-13537108D01*
X15314219Y-13537108D02*
X15314219Y-13499013D01*
X15314219Y-13499013D02*
X15304695Y-13451394D01*
X15304695Y-13451394D02*
X15295171Y-13422823D01*
X15295171Y-13422823D02*
X15285647Y-13403775D01*
X15285647Y-13403775D02*
X15266600Y-13375204D01*
X15266600Y-13375204D02*
X15257076Y-13365680D01*
M02*
