%TF.GenerationSoftware,KiCad,Pcbnew,8.0.1-8.0.1-1~ubuntu22.04.1*%
%TF.CreationDate,2024-03-22T15:25:23-03:00*%
%TF.ProjectId,linefollower,6c696e65-666f-46c6-9c6f-7765722e6b69,rev?*%
%TF.SameCoordinates,Original*%
%TF.FileFunction,Drillmap*%
%TF.FilePolarity,Positive*%
%FSLAX45Y45*%
G04 Gerber Fmt 4.5, Leading zero omitted, Abs format (unit mm)*
G04 Created by KiCad (PCBNEW 8.0.1-8.0.1-1~ubuntu22.04.1) date 2024-03-22 15:25:23*
%MOMM*%
%LPD*%
G01*
G04 APERTURE LIST*
%ADD10C,0.200000*%
G04 APERTURE END LIST*
D10*
X18007016Y-12852767D02*
X19698463Y-12237131D01*
X16000000Y-10907495D02*
G75*
G02*
X18007015Y-12852768I-1000000J-3039735D01*
G01*
X11992983Y-12852767D02*
G75*
G02*
X14000000Y-10907495I3007017J-1094465D01*
G01*
X14000000Y-11776927D02*
X16000000Y-11776927D01*
X14000000Y-10907495D02*
X14000000Y-11776927D01*
X16000000Y-11776927D02*
X16000000Y-10907495D01*
X10301537Y-12237131D02*
G75*
G02*
X19698463Y-12237131I4698463J-1710101D01*
G01*
X10301537Y-12237131D02*
X11992983Y-12852767D01*
X10552314Y-13174251D02*
X10552314Y-12974251D01*
X10552314Y-12974251D02*
X10599933Y-12974251D01*
X10599933Y-12974251D02*
X10628504Y-12983775D01*
X10628504Y-12983775D02*
X10647552Y-13002823D01*
X10647552Y-13002823D02*
X10657075Y-13021870D01*
X10657075Y-13021870D02*
X10666599Y-13059965D01*
X10666599Y-13059965D02*
X10666599Y-13088537D01*
X10666599Y-13088537D02*
X10657075Y-13126632D01*
X10657075Y-13126632D02*
X10647552Y-13145680D01*
X10647552Y-13145680D02*
X10628504Y-13164727D01*
X10628504Y-13164727D02*
X10599933Y-13174251D01*
X10599933Y-13174251D02*
X10552314Y-13174251D01*
X10752314Y-13174251D02*
X10752314Y-13040918D01*
X10752314Y-13079013D02*
X10761837Y-13059965D01*
X10761837Y-13059965D02*
X10771361Y-13050442D01*
X10771361Y-13050442D02*
X10790409Y-13040918D01*
X10790409Y-13040918D02*
X10809456Y-13040918D01*
X10876123Y-13174251D02*
X10876123Y-13040918D01*
X10876123Y-12974251D02*
X10866599Y-12983775D01*
X10866599Y-12983775D02*
X10876123Y-12993299D01*
X10876123Y-12993299D02*
X10885647Y-12983775D01*
X10885647Y-12983775D02*
X10876123Y-12974251D01*
X10876123Y-12974251D02*
X10876123Y-12993299D01*
X10999933Y-13174251D02*
X10980885Y-13164727D01*
X10980885Y-13164727D02*
X10971361Y-13145680D01*
X10971361Y-13145680D02*
X10971361Y-12974251D01*
X11104694Y-13174251D02*
X11085647Y-13164727D01*
X11085647Y-13164727D02*
X11076123Y-13145680D01*
X11076123Y-13145680D02*
X11076123Y-12974251D01*
X11333266Y-13174251D02*
X11333266Y-12974251D01*
X11333266Y-12974251D02*
X11399933Y-13117108D01*
X11399933Y-13117108D02*
X11466599Y-12974251D01*
X11466599Y-12974251D02*
X11466599Y-13174251D01*
X11647552Y-13174251D02*
X11647552Y-13069489D01*
X11647552Y-13069489D02*
X11638028Y-13050442D01*
X11638028Y-13050442D02*
X11618980Y-13040918D01*
X11618980Y-13040918D02*
X11580885Y-13040918D01*
X11580885Y-13040918D02*
X11561837Y-13050442D01*
X11647552Y-13164727D02*
X11628504Y-13174251D01*
X11628504Y-13174251D02*
X11580885Y-13174251D01*
X11580885Y-13174251D02*
X11561837Y-13164727D01*
X11561837Y-13164727D02*
X11552313Y-13145680D01*
X11552313Y-13145680D02*
X11552313Y-13126632D01*
X11552313Y-13126632D02*
X11561837Y-13107585D01*
X11561837Y-13107585D02*
X11580885Y-13098061D01*
X11580885Y-13098061D02*
X11628504Y-13098061D01*
X11628504Y-13098061D02*
X11647552Y-13088537D01*
X11742790Y-13040918D02*
X11742790Y-13240918D01*
X11742790Y-13050442D02*
X11761837Y-13040918D01*
X11761837Y-13040918D02*
X11799933Y-13040918D01*
X11799933Y-13040918D02*
X11818980Y-13050442D01*
X11818980Y-13050442D02*
X11828504Y-13059965D01*
X11828504Y-13059965D02*
X11838028Y-13079013D01*
X11838028Y-13079013D02*
X11838028Y-13136156D01*
X11838028Y-13136156D02*
X11828504Y-13155204D01*
X11828504Y-13155204D02*
X11818980Y-13164727D01*
X11818980Y-13164727D02*
X11799933Y-13174251D01*
X11799933Y-13174251D02*
X11761837Y-13174251D01*
X11761837Y-13174251D02*
X11742790Y-13164727D01*
X11923742Y-13155204D02*
X11933266Y-13164727D01*
X11933266Y-13164727D02*
X11923742Y-13174251D01*
X11923742Y-13174251D02*
X11914218Y-13164727D01*
X11914218Y-13164727D02*
X11923742Y-13155204D01*
X11923742Y-13155204D02*
X11923742Y-13174251D01*
X11923742Y-13050442D02*
X11933266Y-13059965D01*
X11933266Y-13059965D02*
X11923742Y-13069489D01*
X11923742Y-13069489D02*
X11914218Y-13059965D01*
X11914218Y-13059965D02*
X11923742Y-13050442D01*
X11923742Y-13050442D02*
X11923742Y-13069489D01*
M02*
