%TF.GenerationSoftware,KiCad,Pcbnew,8.0.1-8.0.1-1~ubuntu22.04.1*%
%TF.CreationDate,2024-03-22T15:25:37-03:00*%
%TF.ProjectId,linefollower,6c696e65-666f-46c6-9c6f-7765722e6b69,rev?*%
%TF.SameCoordinates,Original*%
%TF.FileFunction,Paste,Bot*%
%TF.FilePolarity,Positive*%
%FSLAX46Y46*%
G04 Gerber Fmt 4.6, Leading zero omitted, Abs format (unit mm)*
G04 Created by KiCad (PCBNEW 8.0.1-8.0.1-1~ubuntu22.04.1) date 2024-03-22 15:25:37*
%MOMM*%
%LPD*%
G01*
G04 APERTURE LIST*
G04 Aperture macros list*
%AMRoundRect*
0 Rectangle with rounded corners*
0 $1 Rounding radius*
0 $2 $3 $4 $5 $6 $7 $8 $9 X,Y pos of 4 corners*
0 Add a 4 corners polygon primitive as box body*
4,1,4,$2,$3,$4,$5,$6,$7,$8,$9,$2,$3,0*
0 Add four circle primitives for the rounded corners*
1,1,$1+$1,$2,$3*
1,1,$1+$1,$4,$5*
1,1,$1+$1,$6,$7*
1,1,$1+$1,$8,$9*
0 Add four rect primitives between the rounded corners*
20,1,$1+$1,$2,$3,$4,$5,0*
20,1,$1+$1,$4,$5,$6,$7,0*
20,1,$1+$1,$6,$7,$8,$9,0*
20,1,$1+$1,$8,$9,$2,$3,0*%
G04 Aperture macros list end*
%ADD10RoundRect,0.237500X-0.250000X-0.237500X0.250000X-0.237500X0.250000X0.237500X-0.250000X0.237500X0*%
%ADD11R,0.800000X1.300000*%
%ADD12R,0.300000X1.300000*%
%ADD13R,0.700000X1.300000*%
%ADD14R,1.800000X2.200000*%
%ADD15RoundRect,0.237500X0.250000X0.237500X-0.250000X0.237500X-0.250000X-0.237500X0.250000X-0.237500X0*%
G04 APERTURE END LIST*
D10*
%TO.C,R6*%
X123138458Y-107950000D03*
X124963458Y-107950000D03*
%TD*%
%TO.C,R2*%
X114436151Y-117314243D03*
X116261151Y-117314243D03*
%TD*%
D11*
%TO.C,J1*%
X155000000Y-110150000D03*
D12*
X154250000Y-110150000D03*
X153750000Y-110150000D03*
X153250000Y-110150000D03*
X152750000Y-110150000D03*
X152250000Y-110150000D03*
X151750000Y-110150000D03*
X151250000Y-110150000D03*
X150750000Y-110150000D03*
X150250000Y-110150000D03*
X149750000Y-110150000D03*
X149250000Y-110150000D03*
X148750000Y-110150000D03*
X148250000Y-110150000D03*
X147750000Y-110150000D03*
X147250000Y-110150000D03*
X146750000Y-110150000D03*
X146250000Y-110150000D03*
X145750000Y-110150000D03*
D13*
X145050000Y-110150000D03*
D14*
X156650000Y-113400000D03*
X143350000Y-113400000D03*
%TD*%
D15*
%TO.C,R9*%
X135867497Y-101924008D03*
X134042497Y-101924008D03*
%TD*%
%TO.C,R29*%
X182254413Y-114913881D03*
X180429413Y-114913881D03*
%TD*%
D10*
%TO.C,R4*%
X118774303Y-114984497D03*
X120599303Y-114984497D03*
%TD*%
D15*
%TO.C,R13*%
X146019898Y-97219635D03*
X144194898Y-97219635D03*
%TD*%
D10*
%TO.C,R26*%
X174687631Y-108440531D03*
X176512631Y-108440531D03*
%TD*%
%TO.C,R30*%
X180452777Y-116642640D03*
X182277777Y-116642640D03*
%TD*%
D15*
%TO.C,R17*%
X154462005Y-97245487D03*
X152637005Y-97245487D03*
%TD*%
%TO.C,R1*%
X116261151Y-120650000D03*
X114436151Y-120650000D03*
%TD*%
D10*
%TO.C,R14*%
X144225000Y-99060000D03*
X146050000Y-99060000D03*
%TD*%
%TO.C,R23*%
X169671174Y-104944924D03*
X171496174Y-104944924D03*
%TD*%
D15*
%TO.C,R31*%
X186678234Y-118692534D03*
X184853234Y-118692534D03*
%TD*%
D10*
%TO.C,R21*%
X164515155Y-102025635D03*
X166340155Y-102025635D03*
%TD*%
%TO.C,R32*%
X184885121Y-120437237D03*
X186710121Y-120437237D03*
%TD*%
D15*
%TO.C,R20*%
X160019999Y-97790000D03*
X158194999Y-97790000D03*
%TD*%
D10*
%TO.C,R28*%
X179590923Y-112594597D03*
X181415923Y-112594597D03*
%TD*%
D15*
%TO.C,R3*%
X120650000Y-113060000D03*
X118825000Y-113060000D03*
%TD*%
D10*
%TO.C,R10*%
X134043620Y-99544649D03*
X135868620Y-99544649D03*
%TD*%
D15*
%TO.C,R27*%
X181328519Y-110549347D03*
X179503519Y-110549347D03*
%TD*%
%TO.C,R25*%
X176530000Y-106710000D03*
X174705000Y-106710000D03*
%TD*%
D10*
%TO.C,R8*%
X127580711Y-102870000D03*
X129405711Y-102870000D03*
%TD*%
D15*
%TO.C,R7*%
X129373824Y-104549041D03*
X127548824Y-104549041D03*
%TD*%
D10*
%TO.C,R19*%
X158195000Y-100330000D03*
X160020000Y-100330000D03*
%TD*%
%TO.C,R12*%
X139143755Y-97933493D03*
X140968755Y-97933493D03*
%TD*%
D15*
%TO.C,R22*%
X166392597Y-99753134D03*
X164567597Y-99753134D03*
%TD*%
D10*
%TO.C,R16*%
X148218852Y-97543930D03*
X150043852Y-97543930D03*
%TD*%
D15*
%TO.C,R11*%
X140889037Y-99798904D03*
X139064037Y-99798904D03*
%TD*%
%TO.C,R15*%
X149972074Y-99561700D03*
X148147074Y-99561700D03*
%TD*%
D10*
%TO.C,R18*%
X152652615Y-99876308D03*
X154477615Y-99876308D03*
%TD*%
D15*
%TO.C,R24*%
X171583578Y-102252885D03*
X169758578Y-102252885D03*
%TD*%
%TO.C,R5*%
X124951225Y-110490000D03*
X123126225Y-110490000D03*
%TD*%
M02*
