%TF.GenerationSoftware,KiCad,Pcbnew,7.0.10*%
%TF.CreationDate,2024-03-21T08:15:52-03:00*%
%TF.ProjectId,linefollower,6c696e65-666f-46c6-9c6f-7765722e6b69,rev?*%
%TF.SameCoordinates,Original*%
%TF.FileFunction,Legend,Top*%
%TF.FilePolarity,Positive*%
%FSLAX46Y46*%
G04 Gerber Fmt 4.6, Leading zero omitted, Abs format (unit mm)*
G04 Created by KiCad (PCBNEW 7.0.10) date 2024-03-21 08:15:52*
%MOMM*%
%LPD*%
G01*
G04 APERTURE LIST*
%ADD10C,0.150000*%
%ADD11C,0.120000*%
G04 APERTURE END LIST*
D10*
X108718098Y-119670902D02*
X108718098Y-120480425D01*
X108718098Y-120480425D02*
X108765717Y-120575663D01*
X108765717Y-120575663D02*
X108813336Y-120623283D01*
X108813336Y-120623283D02*
X108908574Y-120670902D01*
X108908574Y-120670902D02*
X109099050Y-120670902D01*
X109099050Y-120670902D02*
X109194288Y-120623283D01*
X109194288Y-120623283D02*
X109241907Y-120575663D01*
X109241907Y-120575663D02*
X109289526Y-120480425D01*
X109289526Y-120480425D02*
X109289526Y-119670902D01*
X110289526Y-120670902D02*
X109718098Y-120670902D01*
X110003812Y-120670902D02*
X110003812Y-119670902D01*
X110003812Y-119670902D02*
X109908574Y-119813759D01*
X109908574Y-119813759D02*
X109813336Y-119908997D01*
X109813336Y-119908997D02*
X109718098Y-119956616D01*
X145941359Y-95564613D02*
X145941359Y-96374136D01*
X145941359Y-96374136D02*
X145988978Y-96469374D01*
X145988978Y-96469374D02*
X146036597Y-96516994D01*
X146036597Y-96516994D02*
X146131835Y-96564613D01*
X146131835Y-96564613D02*
X146322311Y-96564613D01*
X146322311Y-96564613D02*
X146417549Y-96516994D01*
X146417549Y-96516994D02*
X146465168Y-96469374D01*
X146465168Y-96469374D02*
X146512787Y-96374136D01*
X146512787Y-96374136D02*
X146512787Y-95564613D01*
X147131835Y-95993184D02*
X147036597Y-95945565D01*
X147036597Y-95945565D02*
X146988978Y-95897946D01*
X146988978Y-95897946D02*
X146941359Y-95802708D01*
X146941359Y-95802708D02*
X146941359Y-95755089D01*
X146941359Y-95755089D02*
X146988978Y-95659851D01*
X146988978Y-95659851D02*
X147036597Y-95612232D01*
X147036597Y-95612232D02*
X147131835Y-95564613D01*
X147131835Y-95564613D02*
X147322311Y-95564613D01*
X147322311Y-95564613D02*
X147417549Y-95612232D01*
X147417549Y-95612232D02*
X147465168Y-95659851D01*
X147465168Y-95659851D02*
X147512787Y-95755089D01*
X147512787Y-95755089D02*
X147512787Y-95802708D01*
X147512787Y-95802708D02*
X147465168Y-95897946D01*
X147465168Y-95897946D02*
X147417549Y-95945565D01*
X147417549Y-95945565D02*
X147322311Y-95993184D01*
X147322311Y-95993184D02*
X147131835Y-95993184D01*
X147131835Y-95993184D02*
X147036597Y-96040803D01*
X147036597Y-96040803D02*
X146988978Y-96088422D01*
X146988978Y-96088422D02*
X146941359Y-96183660D01*
X146941359Y-96183660D02*
X146941359Y-96374136D01*
X146941359Y-96374136D02*
X146988978Y-96469374D01*
X146988978Y-96469374D02*
X147036597Y-96516994D01*
X147036597Y-96516994D02*
X147131835Y-96564613D01*
X147131835Y-96564613D02*
X147322311Y-96564613D01*
X147322311Y-96564613D02*
X147417549Y-96516994D01*
X147417549Y-96516994D02*
X147465168Y-96469374D01*
X147465168Y-96469374D02*
X147512787Y-96374136D01*
X147512787Y-96374136D02*
X147512787Y-96183660D01*
X147512787Y-96183660D02*
X147465168Y-96088422D01*
X147465168Y-96088422D02*
X147417549Y-96040803D01*
X147417549Y-96040803D02*
X147322311Y-95993184D01*
X176496475Y-99734464D02*
X176496475Y-100543987D01*
X176496475Y-100543987D02*
X176544094Y-100639225D01*
X176544094Y-100639225D02*
X176591713Y-100686845D01*
X176591713Y-100686845D02*
X176686951Y-100734464D01*
X176686951Y-100734464D02*
X176877427Y-100734464D01*
X176877427Y-100734464D02*
X176972665Y-100686845D01*
X176972665Y-100686845D02*
X177020284Y-100639225D01*
X177020284Y-100639225D02*
X177067903Y-100543987D01*
X177067903Y-100543987D02*
X177067903Y-99734464D01*
X178067903Y-100734464D02*
X177496475Y-100734464D01*
X177782189Y-100734464D02*
X177782189Y-99734464D01*
X177782189Y-99734464D02*
X177686951Y-99877321D01*
X177686951Y-99877321D02*
X177591713Y-99972559D01*
X177591713Y-99972559D02*
X177496475Y-100020178D01*
X178401237Y-99734464D02*
X179020284Y-99734464D01*
X179020284Y-99734464D02*
X178686951Y-100115416D01*
X178686951Y-100115416D02*
X178829808Y-100115416D01*
X178829808Y-100115416D02*
X178925046Y-100163035D01*
X178925046Y-100163035D02*
X178972665Y-100210654D01*
X178972665Y-100210654D02*
X179020284Y-100305892D01*
X179020284Y-100305892D02*
X179020284Y-100543987D01*
X179020284Y-100543987D02*
X178972665Y-100639225D01*
X178972665Y-100639225D02*
X178925046Y-100686845D01*
X178925046Y-100686845D02*
X178829808Y-100734464D01*
X178829808Y-100734464D02*
X178544094Y-100734464D01*
X178544094Y-100734464D02*
X178448856Y-100686845D01*
X178448856Y-100686845D02*
X178401237Y-100639225D01*
X133079228Y-98391726D02*
X133079228Y-99201249D01*
X133079228Y-99201249D02*
X133126847Y-99296487D01*
X133126847Y-99296487D02*
X133174466Y-99344107D01*
X133174466Y-99344107D02*
X133269704Y-99391726D01*
X133269704Y-99391726D02*
X133460180Y-99391726D01*
X133460180Y-99391726D02*
X133555418Y-99344107D01*
X133555418Y-99344107D02*
X133603037Y-99296487D01*
X133603037Y-99296487D02*
X133650656Y-99201249D01*
X133650656Y-99201249D02*
X133650656Y-98391726D01*
X134555418Y-98391726D02*
X134364942Y-98391726D01*
X134364942Y-98391726D02*
X134269704Y-98439345D01*
X134269704Y-98439345D02*
X134222085Y-98486964D01*
X134222085Y-98486964D02*
X134126847Y-98629821D01*
X134126847Y-98629821D02*
X134079228Y-98820297D01*
X134079228Y-98820297D02*
X134079228Y-99201249D01*
X134079228Y-99201249D02*
X134126847Y-99296487D01*
X134126847Y-99296487D02*
X134174466Y-99344107D01*
X134174466Y-99344107D02*
X134269704Y-99391726D01*
X134269704Y-99391726D02*
X134460180Y-99391726D01*
X134460180Y-99391726D02*
X134555418Y-99344107D01*
X134555418Y-99344107D02*
X134603037Y-99296487D01*
X134603037Y-99296487D02*
X134650656Y-99201249D01*
X134650656Y-99201249D02*
X134650656Y-98963154D01*
X134650656Y-98963154D02*
X134603037Y-98867916D01*
X134603037Y-98867916D02*
X134555418Y-98820297D01*
X134555418Y-98820297D02*
X134460180Y-98772678D01*
X134460180Y-98772678D02*
X134269704Y-98772678D01*
X134269704Y-98772678D02*
X134174466Y-98820297D01*
X134174466Y-98820297D02*
X134126847Y-98867916D01*
X134126847Y-98867916D02*
X134079228Y-98963154D01*
X112259125Y-114111315D02*
X112259125Y-114920838D01*
X112259125Y-114920838D02*
X112306744Y-115016076D01*
X112306744Y-115016076D02*
X112354363Y-115063696D01*
X112354363Y-115063696D02*
X112449601Y-115111315D01*
X112449601Y-115111315D02*
X112640077Y-115111315D01*
X112640077Y-115111315D02*
X112735315Y-115063696D01*
X112735315Y-115063696D02*
X112782934Y-115016076D01*
X112782934Y-115016076D02*
X112830553Y-114920838D01*
X112830553Y-114920838D02*
X112830553Y-114111315D01*
X113259125Y-114206553D02*
X113306744Y-114158934D01*
X113306744Y-114158934D02*
X113401982Y-114111315D01*
X113401982Y-114111315D02*
X113640077Y-114111315D01*
X113640077Y-114111315D02*
X113735315Y-114158934D01*
X113735315Y-114158934D02*
X113782934Y-114206553D01*
X113782934Y-114206553D02*
X113830553Y-114301791D01*
X113830553Y-114301791D02*
X113830553Y-114397029D01*
X113830553Y-114397029D02*
X113782934Y-114539886D01*
X113782934Y-114539886D02*
X113211506Y-115111315D01*
X113211506Y-115111315D02*
X113830553Y-115111315D01*
X181459637Y-104090695D02*
X181459637Y-104900218D01*
X181459637Y-104900218D02*
X181507256Y-104995456D01*
X181507256Y-104995456D02*
X181554875Y-105043076D01*
X181554875Y-105043076D02*
X181650113Y-105090695D01*
X181650113Y-105090695D02*
X181840589Y-105090695D01*
X181840589Y-105090695D02*
X181935827Y-105043076D01*
X181935827Y-105043076D02*
X181983446Y-104995456D01*
X181983446Y-104995456D02*
X182031065Y-104900218D01*
X182031065Y-104900218D02*
X182031065Y-104090695D01*
X183031065Y-105090695D02*
X182459637Y-105090695D01*
X182745351Y-105090695D02*
X182745351Y-104090695D01*
X182745351Y-104090695D02*
X182650113Y-104233552D01*
X182650113Y-104233552D02*
X182554875Y-104328790D01*
X182554875Y-104328790D02*
X182459637Y-104376409D01*
X183888208Y-104424028D02*
X183888208Y-105090695D01*
X183650113Y-104043076D02*
X183412018Y-104757361D01*
X183412018Y-104757361D02*
X184031065Y-104757361D01*
X121518698Y-104742951D02*
X121518698Y-105552474D01*
X121518698Y-105552474D02*
X121566317Y-105647712D01*
X121566317Y-105647712D02*
X121613936Y-105695332D01*
X121613936Y-105695332D02*
X121709174Y-105742951D01*
X121709174Y-105742951D02*
X121899650Y-105742951D01*
X121899650Y-105742951D02*
X121994888Y-105695332D01*
X121994888Y-105695332D02*
X122042507Y-105647712D01*
X122042507Y-105647712D02*
X122090126Y-105552474D01*
X122090126Y-105552474D02*
X122090126Y-104742951D01*
X122994888Y-105076284D02*
X122994888Y-105742951D01*
X122756793Y-104695332D02*
X122518698Y-105409617D01*
X122518698Y-105409617D02*
X123137745Y-105409617D01*
X127065241Y-101151106D02*
X127065241Y-101960629D01*
X127065241Y-101960629D02*
X127112860Y-102055867D01*
X127112860Y-102055867D02*
X127160479Y-102103487D01*
X127160479Y-102103487D02*
X127255717Y-102151106D01*
X127255717Y-102151106D02*
X127446193Y-102151106D01*
X127446193Y-102151106D02*
X127541431Y-102103487D01*
X127541431Y-102103487D02*
X127589050Y-102055867D01*
X127589050Y-102055867D02*
X127636669Y-101960629D01*
X127636669Y-101960629D02*
X127636669Y-101151106D01*
X128589050Y-101151106D02*
X128112860Y-101151106D01*
X128112860Y-101151106D02*
X128065241Y-101627296D01*
X128065241Y-101627296D02*
X128112860Y-101579677D01*
X128112860Y-101579677D02*
X128208098Y-101532058D01*
X128208098Y-101532058D02*
X128446193Y-101532058D01*
X128446193Y-101532058D02*
X128541431Y-101579677D01*
X128541431Y-101579677D02*
X128589050Y-101627296D01*
X128589050Y-101627296D02*
X128636669Y-101722534D01*
X128636669Y-101722534D02*
X128636669Y-101960629D01*
X128636669Y-101960629D02*
X128589050Y-102055867D01*
X128589050Y-102055867D02*
X128541431Y-102103487D01*
X128541431Y-102103487D02*
X128446193Y-102151106D01*
X128446193Y-102151106D02*
X128208098Y-102151106D01*
X128208098Y-102151106D02*
X128112860Y-102103487D01*
X128112860Y-102103487D02*
X128065241Y-102055867D01*
X170944449Y-96144479D02*
X170944449Y-96954002D01*
X170944449Y-96954002D02*
X170992068Y-97049240D01*
X170992068Y-97049240D02*
X171039687Y-97096860D01*
X171039687Y-97096860D02*
X171134925Y-97144479D01*
X171134925Y-97144479D02*
X171325401Y-97144479D01*
X171325401Y-97144479D02*
X171420639Y-97096860D01*
X171420639Y-97096860D02*
X171468258Y-97049240D01*
X171468258Y-97049240D02*
X171515877Y-96954002D01*
X171515877Y-96954002D02*
X171515877Y-96144479D01*
X172515877Y-97144479D02*
X171944449Y-97144479D01*
X172230163Y-97144479D02*
X172230163Y-96144479D01*
X172230163Y-96144479D02*
X172134925Y-96287336D01*
X172134925Y-96287336D02*
X172039687Y-96382574D01*
X172039687Y-96382574D02*
X171944449Y-96430193D01*
X172896830Y-96239717D02*
X172944449Y-96192098D01*
X172944449Y-96192098D02*
X173039687Y-96144479D01*
X173039687Y-96144479D02*
X173277782Y-96144479D01*
X173277782Y-96144479D02*
X173373020Y-96192098D01*
X173373020Y-96192098D02*
X173420639Y-96239717D01*
X173420639Y-96239717D02*
X173468258Y-96334955D01*
X173468258Y-96334955D02*
X173468258Y-96430193D01*
X173468258Y-96430193D02*
X173420639Y-96573050D01*
X173420639Y-96573050D02*
X172849211Y-97144479D01*
X172849211Y-97144479D02*
X173468258Y-97144479D01*
X189310976Y-114680392D02*
X189310976Y-115489915D01*
X189310976Y-115489915D02*
X189358595Y-115585153D01*
X189358595Y-115585153D02*
X189406214Y-115632773D01*
X189406214Y-115632773D02*
X189501452Y-115680392D01*
X189501452Y-115680392D02*
X189691928Y-115680392D01*
X189691928Y-115680392D02*
X189787166Y-115632773D01*
X189787166Y-115632773D02*
X189834785Y-115585153D01*
X189834785Y-115585153D02*
X189882404Y-115489915D01*
X189882404Y-115489915D02*
X189882404Y-114680392D01*
X190882404Y-115680392D02*
X190310976Y-115680392D01*
X190596690Y-115680392D02*
X190596690Y-114680392D01*
X190596690Y-114680392D02*
X190501452Y-114823249D01*
X190501452Y-114823249D02*
X190406214Y-114918487D01*
X190406214Y-114918487D02*
X190310976Y-114966106D01*
X191739547Y-114680392D02*
X191549071Y-114680392D01*
X191549071Y-114680392D02*
X191453833Y-114728011D01*
X191453833Y-114728011D02*
X191406214Y-114775630D01*
X191406214Y-114775630D02*
X191310976Y-114918487D01*
X191310976Y-114918487D02*
X191263357Y-115108963D01*
X191263357Y-115108963D02*
X191263357Y-115489915D01*
X191263357Y-115489915D02*
X191310976Y-115585153D01*
X191310976Y-115585153D02*
X191358595Y-115632773D01*
X191358595Y-115632773D02*
X191453833Y-115680392D01*
X191453833Y-115680392D02*
X191644309Y-115680392D01*
X191644309Y-115680392D02*
X191739547Y-115632773D01*
X191739547Y-115632773D02*
X191787166Y-115585153D01*
X191787166Y-115585153D02*
X191834785Y-115489915D01*
X191834785Y-115489915D02*
X191834785Y-115251820D01*
X191834785Y-115251820D02*
X191787166Y-115156582D01*
X191787166Y-115156582D02*
X191739547Y-115108963D01*
X191739547Y-115108963D02*
X191644309Y-115061344D01*
X191644309Y-115061344D02*
X191453833Y-115061344D01*
X191453833Y-115061344D02*
X191358595Y-115108963D01*
X191358595Y-115108963D02*
X191310976Y-115156582D01*
X191310976Y-115156582D02*
X191263357Y-115251820D01*
X116562837Y-109099765D02*
X116562837Y-109909288D01*
X116562837Y-109909288D02*
X116610456Y-110004526D01*
X116610456Y-110004526D02*
X116658075Y-110052146D01*
X116658075Y-110052146D02*
X116753313Y-110099765D01*
X116753313Y-110099765D02*
X116943789Y-110099765D01*
X116943789Y-110099765D02*
X117039027Y-110052146D01*
X117039027Y-110052146D02*
X117086646Y-110004526D01*
X117086646Y-110004526D02*
X117134265Y-109909288D01*
X117134265Y-109909288D02*
X117134265Y-109099765D01*
X117515218Y-109099765D02*
X118134265Y-109099765D01*
X118134265Y-109099765D02*
X117800932Y-109480717D01*
X117800932Y-109480717D02*
X117943789Y-109480717D01*
X117943789Y-109480717D02*
X118039027Y-109528336D01*
X118039027Y-109528336D02*
X118086646Y-109575955D01*
X118086646Y-109575955D02*
X118134265Y-109671193D01*
X118134265Y-109671193D02*
X118134265Y-109909288D01*
X118134265Y-109909288D02*
X118086646Y-110004526D01*
X118086646Y-110004526D02*
X118039027Y-110052146D01*
X118039027Y-110052146D02*
X117943789Y-110099765D01*
X117943789Y-110099765D02*
X117658075Y-110099765D01*
X117658075Y-110099765D02*
X117562837Y-110052146D01*
X117562837Y-110052146D02*
X117515218Y-110004526D01*
X152544177Y-90561050D02*
X152544177Y-91370573D01*
X152544177Y-91370573D02*
X152591796Y-91465811D01*
X152591796Y-91465811D02*
X152639415Y-91513431D01*
X152639415Y-91513431D02*
X152734653Y-91561050D01*
X152734653Y-91561050D02*
X152925129Y-91561050D01*
X152925129Y-91561050D02*
X153020367Y-91513431D01*
X153020367Y-91513431D02*
X153067986Y-91465811D01*
X153067986Y-91465811D02*
X153115605Y-91370573D01*
X153115605Y-91370573D02*
X153115605Y-90561050D01*
X153639415Y-91561050D02*
X153829891Y-91561050D01*
X153829891Y-91561050D02*
X153925129Y-91513431D01*
X153925129Y-91513431D02*
X153972748Y-91465811D01*
X153972748Y-91465811D02*
X154067986Y-91322954D01*
X154067986Y-91322954D02*
X154115605Y-91132478D01*
X154115605Y-91132478D02*
X154115605Y-90751526D01*
X154115605Y-90751526D02*
X154067986Y-90656288D01*
X154067986Y-90656288D02*
X154020367Y-90608669D01*
X154020367Y-90608669D02*
X153925129Y-90561050D01*
X153925129Y-90561050D02*
X153734653Y-90561050D01*
X153734653Y-90561050D02*
X153639415Y-90608669D01*
X153639415Y-90608669D02*
X153591796Y-90656288D01*
X153591796Y-90656288D02*
X153544177Y-90751526D01*
X153544177Y-90751526D02*
X153544177Y-90989621D01*
X153544177Y-90989621D02*
X153591796Y-91084859D01*
X153591796Y-91084859D02*
X153639415Y-91132478D01*
X153639415Y-91132478D02*
X153734653Y-91180097D01*
X153734653Y-91180097D02*
X153925129Y-91180097D01*
X153925129Y-91180097D02*
X154020367Y-91132478D01*
X154020367Y-91132478D02*
X154067986Y-91084859D01*
X154067986Y-91084859D02*
X154115605Y-90989621D01*
X164942886Y-93379271D02*
X164942886Y-94188794D01*
X164942886Y-94188794D02*
X164990505Y-94284032D01*
X164990505Y-94284032D02*
X165038124Y-94331652D01*
X165038124Y-94331652D02*
X165133362Y-94379271D01*
X165133362Y-94379271D02*
X165323838Y-94379271D01*
X165323838Y-94379271D02*
X165419076Y-94331652D01*
X165419076Y-94331652D02*
X165466695Y-94284032D01*
X165466695Y-94284032D02*
X165514314Y-94188794D01*
X165514314Y-94188794D02*
X165514314Y-93379271D01*
X166514314Y-94379271D02*
X165942886Y-94379271D01*
X166228600Y-94379271D02*
X166228600Y-93379271D01*
X166228600Y-93379271D02*
X166133362Y-93522128D01*
X166133362Y-93522128D02*
X166038124Y-93617366D01*
X166038124Y-93617366D02*
X165942886Y-93664985D01*
X167466695Y-94379271D02*
X166895267Y-94379271D01*
X167180981Y-94379271D02*
X167180981Y-93379271D01*
X167180981Y-93379271D02*
X167085743Y-93522128D01*
X167085743Y-93522128D02*
X166990505Y-93617366D01*
X166990505Y-93617366D02*
X166895267Y-93664985D01*
X139400855Y-91510901D02*
X139400855Y-92320424D01*
X139400855Y-92320424D02*
X139448474Y-92415662D01*
X139448474Y-92415662D02*
X139496093Y-92463282D01*
X139496093Y-92463282D02*
X139591331Y-92510901D01*
X139591331Y-92510901D02*
X139781807Y-92510901D01*
X139781807Y-92510901D02*
X139877045Y-92463282D01*
X139877045Y-92463282D02*
X139924664Y-92415662D01*
X139924664Y-92415662D02*
X139972283Y-92320424D01*
X139972283Y-92320424D02*
X139972283Y-91510901D01*
X140353236Y-91510901D02*
X141019902Y-91510901D01*
X141019902Y-91510901D02*
X140591331Y-92510901D01*
X185765030Y-109101523D02*
X185765030Y-109911046D01*
X185765030Y-109911046D02*
X185812649Y-110006284D01*
X185812649Y-110006284D02*
X185860268Y-110053904D01*
X185860268Y-110053904D02*
X185955506Y-110101523D01*
X185955506Y-110101523D02*
X186145982Y-110101523D01*
X186145982Y-110101523D02*
X186241220Y-110053904D01*
X186241220Y-110053904D02*
X186288839Y-110006284D01*
X186288839Y-110006284D02*
X186336458Y-109911046D01*
X186336458Y-109911046D02*
X186336458Y-109101523D01*
X187336458Y-110101523D02*
X186765030Y-110101523D01*
X187050744Y-110101523D02*
X187050744Y-109101523D01*
X187050744Y-109101523D02*
X186955506Y-109244380D01*
X186955506Y-109244380D02*
X186860268Y-109339618D01*
X186860268Y-109339618D02*
X186765030Y-109387237D01*
X188241220Y-109101523D02*
X187765030Y-109101523D01*
X187765030Y-109101523D02*
X187717411Y-109577713D01*
X187717411Y-109577713D02*
X187765030Y-109530094D01*
X187765030Y-109530094D02*
X187860268Y-109482475D01*
X187860268Y-109482475D02*
X188098363Y-109482475D01*
X188098363Y-109482475D02*
X188193601Y-109530094D01*
X188193601Y-109530094D02*
X188241220Y-109577713D01*
X188241220Y-109577713D02*
X188288839Y-109672951D01*
X188288839Y-109672951D02*
X188288839Y-109911046D01*
X188288839Y-109911046D02*
X188241220Y-110006284D01*
X188241220Y-110006284D02*
X188193601Y-110053904D01*
X188193601Y-110053904D02*
X188098363Y-110101523D01*
X188098363Y-110101523D02*
X187860268Y-110101523D01*
X187860268Y-110101523D02*
X187765030Y-110053904D01*
X187765030Y-110053904D02*
X187717411Y-110006284D01*
X158611150Y-91512325D02*
X158611150Y-92321848D01*
X158611150Y-92321848D02*
X158658769Y-92417086D01*
X158658769Y-92417086D02*
X158706388Y-92464706D01*
X158706388Y-92464706D02*
X158801626Y-92512325D01*
X158801626Y-92512325D02*
X158992102Y-92512325D01*
X158992102Y-92512325D02*
X159087340Y-92464706D01*
X159087340Y-92464706D02*
X159134959Y-92417086D01*
X159134959Y-92417086D02*
X159182578Y-92321848D01*
X159182578Y-92321848D02*
X159182578Y-91512325D01*
X160182578Y-92512325D02*
X159611150Y-92512325D01*
X159896864Y-92512325D02*
X159896864Y-91512325D01*
X159896864Y-91512325D02*
X159801626Y-91655182D01*
X159801626Y-91655182D02*
X159706388Y-91750420D01*
X159706388Y-91750420D02*
X159611150Y-91798039D01*
X160801626Y-91512325D02*
X160896864Y-91512325D01*
X160896864Y-91512325D02*
X160992102Y-91559944D01*
X160992102Y-91559944D02*
X161039721Y-91607563D01*
X161039721Y-91607563D02*
X161087340Y-91702801D01*
X161087340Y-91702801D02*
X161134959Y-91893277D01*
X161134959Y-91893277D02*
X161134959Y-92131372D01*
X161134959Y-92131372D02*
X161087340Y-92321848D01*
X161087340Y-92321848D02*
X161039721Y-92417086D01*
X161039721Y-92417086D02*
X160992102Y-92464706D01*
X160992102Y-92464706D02*
X160896864Y-92512325D01*
X160896864Y-92512325D02*
X160801626Y-92512325D01*
X160801626Y-92512325D02*
X160706388Y-92464706D01*
X160706388Y-92464706D02*
X160658769Y-92417086D01*
X160658769Y-92417086D02*
X160611150Y-92321848D01*
X160611150Y-92321848D02*
X160563531Y-92131372D01*
X160563531Y-92131372D02*
X160563531Y-91893277D01*
X160563531Y-91893277D02*
X160611150Y-91702801D01*
X160611150Y-91702801D02*
X160658769Y-91607563D01*
X160658769Y-91607563D02*
X160706388Y-91559944D01*
X160706388Y-91559944D02*
X160801626Y-91512325D01*
D11*
%TO.C,U1*%
X110880003Y-119416083D02*
X106680003Y-119416083D01*
X110880003Y-116016083D02*
X108080003Y-116016083D01*
%TO.C,U8*%
X148103264Y-95309794D02*
X143903264Y-95309794D01*
X148103264Y-91909794D02*
X145303264Y-91909794D01*
%TO.C,U13*%
X176334570Y-101079645D02*
X180534570Y-101079645D01*
X176334570Y-104479645D02*
X179134570Y-104479645D01*
%TO.C,U6*%
X135241133Y-98136907D02*
X131041133Y-98136907D01*
X135241133Y-94736907D02*
X132441133Y-94736907D01*
%TO.C,U2*%
X114421030Y-113856496D02*
X110221030Y-113856496D01*
X114421030Y-110456496D02*
X111621030Y-110456496D01*
%TO.C,U14*%
X181297732Y-105435876D02*
X185497732Y-105435876D01*
X181297732Y-108835876D02*
X184097732Y-108835876D01*
%TO.C,U4*%
X123680603Y-104488132D02*
X119480603Y-104488132D01*
X123680603Y-101088132D02*
X120880603Y-101088132D01*
%TO.C,U5*%
X129227146Y-100896287D02*
X125027146Y-100896287D01*
X129227146Y-97496287D02*
X126427146Y-97496287D01*
%TO.C,U12*%
X170782544Y-97489660D02*
X174982544Y-97489660D01*
X170782544Y-100889660D02*
X173582544Y-100889660D01*
%TO.C,U16*%
X189149071Y-116025573D02*
X193349071Y-116025573D01*
X189149071Y-119425573D02*
X191949071Y-119425573D01*
%TO.C,U3*%
X118724742Y-108844946D02*
X114524742Y-108844946D01*
X118724742Y-105444946D02*
X115924742Y-105444946D01*
%TO.C,U9*%
X151906082Y-91906231D02*
X156106082Y-91906231D01*
X151906082Y-95306231D02*
X154706082Y-95306231D01*
%TO.C,U11*%
X164780981Y-94724452D02*
X168980981Y-94724452D01*
X164780981Y-98124452D02*
X167580981Y-98124452D01*
%TO.C,U7*%
X138762760Y-92856082D02*
X142962760Y-92856082D01*
X138762760Y-96256082D02*
X141562760Y-96256082D01*
%TO.C,U15*%
X185603125Y-110446704D02*
X189803125Y-110446704D01*
X185603125Y-113846704D02*
X188403125Y-113846704D01*
%TO.C,U10*%
X158449245Y-92857506D02*
X162649245Y-92857506D01*
X158449245Y-96257506D02*
X161249245Y-96257506D01*
%TD*%
M02*
