M48
; DRILL file {KiCad 7.0.10} date Thu Mar 21 08:15:49 2024
; FORMAT={-:-/ absolute / metric / decimal}
; #@! TF.CreationDate,2024-03-21T08:15:49-03:00
; #@! TF.GenerationSoftware,Kicad,Pcbnew,7.0.10
; #@! TF.FileFunction,MixedPlating,1,2
FMAT,2
METRIC
; #@! TA.AperFunction,Plated,PTH,ViaDrill
T1C0.400
%
G90
G05
T1
X113.12Y-117.313
X113.182Y-119.027
X113.572Y-114.906
X115.33Y-108.986
X118.774Y-110.521
X121.643Y-104.873
X123.147Y-106.217
X126.043Y-101.876
X130.321Y-101.541
X132.66Y-99.545
X134.134Y-97.808
X138.168Y-97.696
X140.153Y-95.244
X142.288Y-91.97
X143.102Y-109.795
X146.05Y-107.95
X146.137Y-112.533
X146.196Y-106.845
X146.205Y-105.783
X146.687Y-92.463
X146.818Y-95.69
X147.267Y-105.287
X147.943Y-102.915
X148.943Y-102.938
X150.035Y-102.905
X151.093Y-102.917
X151.328Y-96.123
X152.16Y-102.9
X153.146Y-104.163
X153.19Y-102.882
X153.437Y-105.177
X153.437Y-93.701
X153.592Y-106.628
X153.977Y-107.939
X154.231Y-112.51
X158.785Y-96.537
X159.816Y-94.474
X164.676Y-98.285
X166.267Y-96.414
X171.667Y-100.819
X172.699Y-98.966
X175.68Y-105.153
X177.801Y-102.869
X181.308Y-109.308
X182.846Y-107.141
X183.988Y-114.307
X186.679Y-117.353
X187.03Y-113.153
X190.478Y-118.029
M30
