%TF.GenerationSoftware,KiCad,Pcbnew,7.0.10*%
%TF.CreationDate,2024-03-21T08:15:51-03:00*%
%TF.ProjectId,linefollower,6c696e65-666f-46c6-9c6f-7765722e6b69,rev?*%
%TF.SameCoordinates,Original*%
%TF.FileFunction,Copper,L2,Bot*%
%TF.FilePolarity,Positive*%
%FSLAX46Y46*%
G04 Gerber Fmt 4.6, Leading zero omitted, Abs format (unit mm)*
G04 Created by KiCad (PCBNEW 7.0.10) date 2024-03-21 08:15:51*
%MOMM*%
%LPD*%
G01*
G04 APERTURE LIST*
G04 Aperture macros list*
%AMRoundRect*
0 Rectangle with rounded corners*
0 $1 Rounding radius*
0 $2 $3 $4 $5 $6 $7 $8 $9 X,Y pos of 4 corners*
0 Add a 4 corners polygon primitive as box body*
4,1,4,$2,$3,$4,$5,$6,$7,$8,$9,$2,$3,0*
0 Add four circle primitives for the rounded corners*
1,1,$1+$1,$2,$3*
1,1,$1+$1,$4,$5*
1,1,$1+$1,$6,$7*
1,1,$1+$1,$8,$9*
0 Add four rect primitives between the rounded corners*
20,1,$1+$1,$2,$3,$4,$5,0*
20,1,$1+$1,$4,$5,$6,$7,0*
20,1,$1+$1,$6,$7,$8,$9,0*
20,1,$1+$1,$8,$9,$2,$3,0*%
G04 Aperture macros list end*
%TA.AperFunction,SMDPad,CuDef*%
%ADD10R,0.800000X1.300000*%
%TD*%
%TA.AperFunction,SMDPad,CuDef*%
%ADD11R,0.300000X1.300000*%
%TD*%
%TA.AperFunction,SMDPad,CuDef*%
%ADD12R,0.700000X1.300000*%
%TD*%
%TA.AperFunction,SMDPad,CuDef*%
%ADD13R,1.800000X2.200000*%
%TD*%
%TA.AperFunction,SMDPad,CuDef*%
%ADD14RoundRect,0.237500X-0.250000X-0.237500X0.250000X-0.237500X0.250000X0.237500X-0.250000X0.237500X0*%
%TD*%
%TA.AperFunction,SMDPad,CuDef*%
%ADD15RoundRect,0.237500X0.250000X0.237500X-0.250000X0.237500X-0.250000X-0.237500X0.250000X-0.237500X0*%
%TD*%
%TA.AperFunction,ViaPad*%
%ADD16C,0.800000*%
%TD*%
%TA.AperFunction,Conductor*%
%ADD17C,0.250000*%
%TD*%
%TA.AperFunction,Conductor*%
%ADD18C,1.000000*%
%TD*%
%TA.AperFunction,Conductor*%
%ADD19C,0.300000*%
%TD*%
%TA.AperFunction,Conductor*%
%ADD20C,0.600000*%
%TD*%
G04 APERTURE END LIST*
D10*
%TO.P,J1,1,1*%
%TO.N,VCC*%
X155000000Y-110150000D03*
D11*
%TO.P,J1,2,2*%
%TO.N,GND*%
X154250000Y-110150000D03*
%TO.P,J1,3,3*%
%TO.N,Net-(J1-Pad3)*%
X153750000Y-110150000D03*
%TO.P,J1,4,4*%
%TO.N,Net-(J1-Pad4)*%
X153250000Y-110150000D03*
%TO.P,J1,5,5*%
%TO.N,Net-(J1-Pad5)*%
X152750000Y-110150000D03*
%TO.P,J1,6,6*%
%TO.N,Net-(J1-Pad6)*%
X152250000Y-110150000D03*
%TO.P,J1,7,7*%
%TO.N,Net-(J1-Pad7)*%
X151750000Y-110150000D03*
%TO.P,J1,8,8*%
%TO.N,Net-(J1-Pad8)*%
X151250000Y-110150000D03*
%TO.P,J1,9,9*%
%TO.N,Net-(J1-Pad9)*%
X150750000Y-110150000D03*
%TO.P,J1,10,10*%
%TO.N,Net-(J1-Pad10)*%
X150250000Y-110150000D03*
%TO.P,J1,11,11*%
%TO.N,Net-(J1-Pad11)*%
X149750000Y-110150000D03*
%TO.P,J1,12,12*%
%TO.N,Net-(J1-Pad12)*%
X149250000Y-110150000D03*
%TO.P,J1,13,13*%
%TO.N,Net-(J1-Pad13)*%
X148750000Y-110150000D03*
%TO.P,J1,14,14*%
%TO.N,Net-(J1-Pad14)*%
X148250000Y-110150000D03*
%TO.P,J1,15,15*%
%TO.N,Net-(J1-Pad15)*%
X147750000Y-110150000D03*
%TO.P,J1,16,16*%
%TO.N,Net-(J1-Pad16)*%
X147250000Y-110150000D03*
%TO.P,J1,17,17*%
%TO.N,Net-(J1-Pad17)*%
X146750000Y-110150000D03*
%TO.P,J1,18,18*%
%TO.N,Net-(J1-Pad18)*%
X146250000Y-110150000D03*
%TO.P,J1,19,19*%
%TO.N,GND*%
X145750000Y-110150000D03*
D12*
%TO.P,J1,20,20*%
%TO.N,VCC*%
X145050000Y-110150000D03*
D13*
%TO.P,J1,MP*%
%TO.N,N/C*%
X156650000Y-113400000D03*
X143350000Y-113400000D03*
%TD*%
D14*
%TO.P,R6,1*%
%TO.N,Net-(J1-Pad16)*%
X123138458Y-107950000D03*
%TO.P,R6,2*%
%TO.N,VCC*%
X124963458Y-107950000D03*
%TD*%
%TO.P,R2,1*%
%TO.N,Net-(J1-Pad18)*%
X114436151Y-117314243D03*
%TO.P,R2,2*%
%TO.N,VCC*%
X116261151Y-117314243D03*
%TD*%
D15*
%TO.P,R9,1*%
%TO.N,VCC*%
X135867497Y-101924008D03*
%TO.P,R9,2*%
%TO.N,Net-(U5-A)*%
X134042497Y-101924008D03*
%TD*%
%TO.P,R29,1*%
%TO.N,Net-(J1-Pad4)*%
X182254413Y-114913881D03*
%TO.P,R29,2*%
%TO.N,VCC*%
X180429413Y-114913881D03*
%TD*%
D14*
%TO.P,R4,1*%
%TO.N,Net-(J1-Pad17)*%
X118774303Y-114984497D03*
%TO.P,R4,2*%
%TO.N,VCC*%
X120599303Y-114984497D03*
%TD*%
D15*
%TO.P,R13,1*%
%TO.N,VCC*%
X146019898Y-97219635D03*
%TO.P,R13,2*%
%TO.N,Net-(U7-A)*%
X144194898Y-97219635D03*
%TD*%
D14*
%TO.P,R26,1*%
%TO.N,VCC*%
X174687631Y-108440531D03*
%TO.P,R26,2*%
%TO.N,Net-(U13-A)*%
X176512631Y-108440531D03*
%TD*%
%TO.P,R30,1*%
%TO.N,VCC*%
X180452777Y-116642640D03*
%TO.P,R30,2*%
%TO.N,Net-(U15-A)*%
X182277777Y-116642640D03*
%TD*%
D15*
%TO.P,R17,1*%
%TO.N,VCC*%
X154462005Y-97245487D03*
%TO.P,R17,2*%
%TO.N,Net-(U9-A)*%
X152637005Y-97245487D03*
%TD*%
%TO.P,R1,1*%
%TO.N,VCC*%
X116261151Y-120650000D03*
%TO.P,R1,2*%
%TO.N,Net-(U1-A)*%
X114436151Y-120650000D03*
%TD*%
D14*
%TO.P,R14,1*%
%TO.N,Net-(J1-Pad12)*%
X144225000Y-99060000D03*
%TO.P,R14,2*%
%TO.N,VCC*%
X146050000Y-99060000D03*
%TD*%
%TO.P,R23,1*%
%TO.N,VCC*%
X169671174Y-104944924D03*
%TO.P,R23,2*%
%TO.N,Net-(U12-A)*%
X171496174Y-104944924D03*
%TD*%
D15*
%TO.P,R31,1*%
%TO.N,Net-(J1-Pad3)*%
X186678234Y-118692534D03*
%TO.P,R31,2*%
%TO.N,VCC*%
X184853234Y-118692534D03*
%TD*%
D14*
%TO.P,R21,1*%
%TO.N,VCC*%
X164515155Y-102025635D03*
%TO.P,R21,2*%
%TO.N,Net-(U11-A)*%
X166340155Y-102025635D03*
%TD*%
%TO.P,R32,1*%
%TO.N,VCC*%
X184885121Y-120437237D03*
%TO.P,R32,2*%
%TO.N,Net-(U16-A)*%
X186710121Y-120437237D03*
%TD*%
D15*
%TO.P,R20,1*%
%TO.N,Net-(J1-Pad9)*%
X160019999Y-97790000D03*
%TO.P,R20,2*%
%TO.N,VCC*%
X158194999Y-97790000D03*
%TD*%
D14*
%TO.P,R28,1*%
%TO.N,VCC*%
X179590923Y-112594597D03*
%TO.P,R28,2*%
%TO.N,Net-(U14-A)*%
X181415923Y-112594597D03*
%TD*%
D15*
%TO.P,R3,1*%
%TO.N,VCC*%
X120650000Y-113060000D03*
%TO.P,R3,2*%
%TO.N,Net-(U2-A)*%
X118825000Y-113060000D03*
%TD*%
D14*
%TO.P,R10,1*%
%TO.N,Net-(J1-Pad14)*%
X134043620Y-99544649D03*
%TO.P,R10,2*%
%TO.N,VCC*%
X135868620Y-99544649D03*
%TD*%
D15*
%TO.P,R27,1*%
%TO.N,Net-(J1-Pad5)*%
X181328519Y-110549347D03*
%TO.P,R27,2*%
%TO.N,VCC*%
X179503519Y-110549347D03*
%TD*%
%TO.P,R25,1*%
%TO.N,Net-(J1-Pad6)*%
X176530000Y-106710000D03*
%TO.P,R25,2*%
%TO.N,VCC*%
X174705000Y-106710000D03*
%TD*%
D14*
%TO.P,R8,1*%
%TO.N,Net-(J1-Pad15)*%
X127580711Y-102870000D03*
%TO.P,R8,2*%
%TO.N,VCC*%
X129405711Y-102870000D03*
%TD*%
D15*
%TO.P,R7,1*%
%TO.N,VCC*%
X129373824Y-104549041D03*
%TO.P,R7,2*%
%TO.N,Net-(U4-A)*%
X127548824Y-104549041D03*
%TD*%
D14*
%TO.P,R19,1*%
%TO.N,VCC*%
X158195000Y-100330000D03*
%TO.P,R19,2*%
%TO.N,Net-(U10-A)*%
X160020000Y-100330000D03*
%TD*%
%TO.P,R12,1*%
%TO.N,Net-(J1-Pad13)*%
X139143755Y-97933493D03*
%TO.P,R12,2*%
%TO.N,VCC*%
X140968755Y-97933493D03*
%TD*%
D15*
%TO.P,R22,2*%
%TO.N,VCC*%
X164567597Y-99753134D03*
%TO.P,R22,1*%
%TO.N,Net-(J1-Pad8)*%
X166392597Y-99753134D03*
%TD*%
D14*
%TO.P,R16,1*%
%TO.N,Net-(J1-Pad11)*%
X148218852Y-97543930D03*
%TO.P,R16,2*%
%TO.N,VCC*%
X150043852Y-97543930D03*
%TD*%
D15*
%TO.P,R11,1*%
%TO.N,VCC*%
X140889037Y-99798904D03*
%TO.P,R11,2*%
%TO.N,Net-(U6-A)*%
X139064037Y-99798904D03*
%TD*%
%TO.P,R15,1*%
%TO.N,VCC*%
X149972074Y-99561700D03*
%TO.P,R15,2*%
%TO.N,Net-(U8-A)*%
X148147074Y-99561700D03*
%TD*%
D14*
%TO.P,R18,1*%
%TO.N,Net-(J1-Pad10)*%
X152652615Y-99876308D03*
%TO.P,R18,2*%
%TO.N,VCC*%
X154477615Y-99876308D03*
%TD*%
D15*
%TO.P,R24,1*%
%TO.N,Net-(J1-Pad7)*%
X171583578Y-102252885D03*
%TO.P,R24,2*%
%TO.N,VCC*%
X169758578Y-102252885D03*
%TD*%
%TO.P,R5,1*%
%TO.N,VCC*%
X124951225Y-110490000D03*
%TO.P,R5,2*%
%TO.N,Net-(U3-A)*%
X123126225Y-110490000D03*
%TD*%
D16*
%TO.N,GND*%
X154231001Y-112509933D03*
X143101576Y-109794587D03*
%TO.N,Net-(J1-Pad3)*%
X153976615Y-107938615D03*
%TO.N,Net-(U16-A)*%
X190477770Y-118028962D03*
%TO.N,Net-(J1-Pad3)*%
X186678615Y-117353038D03*
%TO.N,Net-(J1-Pad4)*%
X153592363Y-106627557D03*
X183988193Y-114306905D03*
%TO.N,Net-(U15-A)*%
X187029848Y-113153173D03*
%TO.N,Net-(J1-Pad5)*%
X153436923Y-105177192D03*
%TO.N,Net-(J1-Pad6)*%
X153145846Y-104163307D03*
%TO.N,Net-(U14-A)*%
X182845847Y-107140596D03*
%TO.N,Net-(J1-Pad5)*%
X181307538Y-109308212D03*
%TO.N,Net-(U13-A)*%
X177800539Y-102869191D03*
%TO.N,Net-(J1-Pad6)*%
X175679538Y-105153345D03*
%TO.N,Net-(J1-Pad7)*%
X153190305Y-102882192D03*
%TO.N,Net-(U12-A)*%
X172698848Y-98966499D03*
%TO.N,Net-(J1-Pad7)*%
X171667482Y-100819461D03*
%TO.N,Net-(J1-Pad8)*%
X152159748Y-102899673D03*
%TO.N,Net-(U11-A)*%
X166266732Y-96414306D03*
%TO.N,Net-(J1-Pad8)*%
X164675982Y-98284749D03*
%TO.N,Net-(J1-Pad9)*%
X151093421Y-102917154D03*
%TO.N,Net-(U10-A)*%
X159816327Y-94473940D03*
%TO.N,Net-(J1-Pad9)*%
X158784961Y-96536672D03*
%TO.N,Net-(U9-A)*%
X153437462Y-93700525D03*
%TO.N,Net-(J1-Pad10)*%
X150034807Y-102904961D03*
X151327576Y-96123499D03*
%TO.N,Net-(J1-Pad11)*%
X146687062Y-92462588D03*
X148943107Y-102938370D03*
%TO.N,Net-(J1-Pad12)*%
X147943375Y-102915120D03*
X140153323Y-95244145D03*
%TO.N,Net-(J1-Pad13)*%
X147266674Y-105287404D03*
X138167814Y-97696289D03*
%TO.N,Net-(J1-Pad14)*%
X146205123Y-105783200D03*
X132660230Y-99544649D03*
%TO.N,Net-(J1-Pad15)*%
X126043018Y-101875996D03*
X146195654Y-106844931D03*
%TO.N,Net-(J1-Pad16)*%
X123147483Y-106217453D03*
X146050000Y-107950000D03*
%TO.N,Net-(J1-Pad17)*%
X113571544Y-114905859D03*
%TO.N,Net-(J1-Pad18)*%
X113120167Y-117312815D03*
X146136623Y-112532599D03*
%TO.N,Net-(U1-A)*%
X113181893Y-119027190D03*
%TO.N,Net-(U2-A)*%
X118774140Y-110521346D03*
%TO.N,Net-(U3-A)*%
X115329763Y-108986339D03*
%TO.N,Net-(U4-A)*%
X121642562Y-104873409D03*
%TO.N,Net-(U5-A)*%
X130320700Y-101541359D03*
%TO.N,Net-(U6-A)*%
X134134062Y-97807894D03*
%TO.N,Net-(U7-A)*%
X142287650Y-91970375D03*
%TO.N,Net-(U8-A)*%
X146818299Y-95690207D03*
%TD*%
D17*
%TO.N,Net-(U8-A)*%
X147110769Y-95982677D02*
X146818299Y-95690207D01*
X147110769Y-98525395D02*
X147110769Y-95982677D01*
X148147074Y-99561700D02*
X147110769Y-98525395D01*
%TO.N,Net-(U1-A)*%
X114436151Y-120650000D02*
X114436151Y-119017742D01*
D18*
%TO.N,VCC*%
X116261151Y-117314243D02*
X116261151Y-120650000D01*
D17*
%TO.N,GND*%
X154231001Y-112509933D02*
X154250000Y-112431883D01*
X143101576Y-109794587D02*
X143194807Y-109934433D01*
X145020374Y-111760000D02*
X143101576Y-109794587D01*
X145090000Y-111760000D02*
X145020374Y-111760000D01*
X145750000Y-111100000D02*
X145090000Y-111760000D01*
X145750000Y-110150000D02*
X145750000Y-111100000D01*
%TO.N,Net-(J1-Pad18)*%
X146250000Y-110150000D02*
X146250000Y-112419222D01*
X146250000Y-112419222D02*
X146136623Y-112532599D01*
%TO.N,Net-(J1-Pad17)*%
X146750000Y-111100000D02*
X146750000Y-110150000D01*
X147320000Y-111670000D02*
X146750000Y-111100000D01*
X147659795Y-112099795D02*
X147320000Y-111760000D01*
X147659795Y-113340769D02*
X147659795Y-112099795D01*
X147656342Y-113344222D02*
X147659795Y-113340769D01*
X145922940Y-113344222D02*
X147656342Y-113344222D01*
X144575000Y-111996282D02*
X145922940Y-113344222D01*
X144575000Y-111975000D02*
X144575000Y-111996282D01*
X134552488Y-106680000D02*
X138430000Y-106680000D01*
X111760000Y-121920000D02*
X119312488Y-121920000D01*
X143725000Y-111975000D02*
X144575000Y-111975000D01*
X111760000Y-116840000D02*
X111760000Y-121920000D01*
X147320000Y-111760000D02*
X147320000Y-111670000D01*
X113694141Y-114905859D02*
X111760000Y-116840000D01*
X138430000Y-106680000D02*
X143725000Y-111975000D01*
X113571544Y-114905859D02*
X113694141Y-114905859D01*
X119312488Y-121920000D02*
X134552488Y-106680000D01*
%TO.N,GND*%
X154250000Y-110150000D02*
X154231001Y-112509933D01*
%TO.N,Net-(J1-Pad16)*%
X123138458Y-106226478D02*
X123147483Y-106217453D01*
X123138458Y-107950000D02*
X123138458Y-106226478D01*
D19*
%TO.N,Net-(U3-A)*%
X121569238Y-108933013D02*
X123126225Y-110490000D01*
X115383089Y-108933013D02*
X121569238Y-108933013D01*
X115329763Y-108986339D02*
X115383089Y-108933013D01*
D17*
%TO.N,Net-(J1-Pad3)*%
X153750000Y-108165230D02*
X153976615Y-107938615D01*
X153750000Y-110150000D02*
X153750000Y-108165230D01*
%TO.N,Net-(U16-A)*%
X190581038Y-118028962D02*
X190500000Y-118110000D01*
X190477770Y-118028962D02*
X190581038Y-118028962D01*
X190477770Y-118132230D02*
X190477770Y-118028962D01*
X188172763Y-120437237D02*
X190477770Y-118132230D01*
X186710121Y-120437237D02*
X188172763Y-120437237D01*
%TO.N,Net-(J1-Pad3)*%
X186865988Y-117353038D02*
X186788351Y-117430675D01*
X186678615Y-117353038D02*
X186865988Y-117353038D01*
X186678615Y-117540411D02*
X186678615Y-117353038D01*
X186678234Y-117540792D02*
X186678615Y-117540411D01*
X186678234Y-118692534D02*
X186678234Y-117540792D01*
%TO.N,Net-(J1-Pad4)*%
X153250000Y-110150000D02*
X153250000Y-106969920D01*
X153250000Y-106969920D02*
X153592363Y-106627557D01*
X184093078Y-114306905D02*
X184066857Y-114333126D01*
X183988193Y-114306905D02*
X184093078Y-114306905D01*
X183988193Y-114411790D02*
X183988193Y-114306905D01*
X183486102Y-114913881D02*
X183988193Y-114411790D01*
X182254413Y-114913881D02*
X183486102Y-114913881D01*
%TO.N,Net-(U15-A)*%
X187108512Y-113153173D02*
X187056069Y-113205616D01*
X187029848Y-113153173D02*
X187108512Y-113153173D01*
X187029848Y-113231837D02*
X187029848Y-113153173D01*
X183619045Y-116642640D02*
X187029848Y-113231837D01*
X182277777Y-116642640D02*
X183619045Y-116642640D01*
%TO.N,Net-(J1-Pad5)*%
X152750000Y-105864115D02*
X153436923Y-105177192D01*
X152750000Y-110150000D02*
X152750000Y-105864115D01*
%TO.N,Net-(J1-Pad6)*%
X152627269Y-104163307D02*
X153145846Y-104163307D01*
X151834807Y-104955769D02*
X152627269Y-104163307D01*
X151834807Y-106027923D02*
X151834807Y-104955769D01*
X152250000Y-106443116D02*
X151834807Y-106027923D01*
X152250000Y-110150000D02*
X152250000Y-106443116D01*
%TO.N,Net-(U14-A)*%
X182863327Y-107123116D02*
X182863327Y-107123115D01*
X182845847Y-107140596D02*
X182863327Y-107123116D01*
X182863327Y-107158076D02*
X182845847Y-107140596D01*
X182863327Y-111147193D02*
X182863327Y-107158076D01*
X181415923Y-112594597D02*
X182863327Y-111147193D01*
%TO.N,Net-(J1-Pad5)*%
X181255096Y-109308212D02*
X181307538Y-109360654D01*
X181307538Y-109308212D02*
X181255096Y-109308212D01*
X181307538Y-109360654D02*
X181307538Y-109308212D01*
X181328519Y-109381635D02*
X181307538Y-109360654D01*
X181328519Y-110549347D02*
X181328519Y-109381635D01*
%TO.N,Net-(U13-A)*%
X177800539Y-102869191D02*
X177800000Y-102870000D01*
X177800000Y-107153162D02*
X177800539Y-102869191D01*
X176512631Y-108440531D02*
X177800000Y-107153162D01*
%TO.N,Net-(J1-Pad6)*%
X175623694Y-105153345D02*
X175659195Y-105188846D01*
X175679538Y-105153345D02*
X175623694Y-105153345D01*
X175679538Y-105209189D02*
X175679538Y-105153345D01*
X176530000Y-106059651D02*
X175679538Y-105209189D01*
X176530000Y-106710000D02*
X176530000Y-106059651D01*
%TO.N,Net-(J1-Pad7)*%
X151750000Y-106627067D02*
X151384807Y-106261874D01*
X151750000Y-110150000D02*
X151750000Y-106627067D01*
X151384807Y-106261874D02*
X151384807Y-104736666D01*
X153190305Y-102931168D02*
X153190305Y-102882192D01*
X151384807Y-104736666D02*
X153190305Y-102931168D01*
%TO.N,Net-(U12-A)*%
X172698848Y-98966499D02*
X172720000Y-99060000D01*
X172720000Y-103721098D02*
X172698848Y-98966499D01*
X171496174Y-104944924D02*
X172720000Y-103721098D01*
%TO.N,Net-(J1-Pad7)*%
X171684964Y-100819461D02*
X171650002Y-100854423D01*
X171667482Y-100819461D02*
X171684964Y-100819461D01*
X171667482Y-100836943D02*
X171667482Y-100819461D01*
X171583578Y-100920847D02*
X171667482Y-100836943D01*
X171583578Y-102252885D02*
X171583578Y-100920847D01*
%TO.N,Net-(J1-Pad8)*%
X151250000Y-106763463D02*
X150934807Y-106448270D01*
X151250000Y-110150000D02*
X151250000Y-106763463D01*
X150934807Y-106448270D02*
X150934807Y-104124614D01*
X150934807Y-104124614D02*
X152159748Y-102899673D01*
%TO.N,Net-(U11-A)*%
X166266732Y-96414306D02*
X166370000Y-96520000D01*
X166370000Y-97790000D02*
X166266732Y-96414306D01*
X167205097Y-98625097D02*
X166370000Y-97790000D01*
X167205097Y-101160693D02*
X167205097Y-98625097D01*
X166340155Y-102025635D02*
X167205097Y-101160693D01*
%TO.N,Net-(J1-Pad8)*%
X164658501Y-98284749D02*
X164710943Y-98337191D01*
X164675982Y-98284749D02*
X164658501Y-98284749D01*
X164675982Y-98302230D02*
X164675982Y-98284749D01*
X166126886Y-99753134D02*
X164675982Y-98302230D01*
X166392597Y-99753134D02*
X166126886Y-99753134D01*
%TO.N,Net-(J1-Pad9)*%
X151110902Y-102917154D02*
X151093421Y-102934635D01*
X151093421Y-102917154D02*
X151110902Y-102917154D01*
X151093421Y-102934635D02*
X151093421Y-102917154D01*
X150484807Y-103543249D02*
X151093421Y-102934635D01*
X150484807Y-106815366D02*
X150484807Y-103543249D01*
X150750000Y-107080559D02*
X150484807Y-106815366D01*
X150750000Y-110150000D02*
X150750000Y-107080559D01*
%TO.N,Net-(U10-A)*%
X159781365Y-94473940D02*
X159816327Y-94508902D01*
X159816327Y-94473940D02*
X159781365Y-94473940D01*
X159816327Y-94508902D02*
X159816327Y-94473940D01*
X160832499Y-95525074D02*
X159816327Y-94508902D01*
X160832499Y-99517501D02*
X160832499Y-95525074D01*
X160020000Y-100330000D02*
X160832499Y-99517501D01*
%TO.N,Net-(J1-Pad9)*%
X158784961Y-96536672D02*
X158750000Y-96589114D01*
X158819113Y-96589114D02*
X158784961Y-96536672D01*
X160019999Y-97790000D02*
X158819113Y-96589114D01*
%TO.N,Net-(U9-A)*%
X153437462Y-93595640D02*
X153358798Y-93674304D01*
X153437462Y-93700525D02*
X153437462Y-93595640D01*
X153332577Y-93700525D02*
X153437462Y-93700525D01*
X152637005Y-94396097D02*
X153332577Y-93700525D01*
X152637005Y-97245487D02*
X152637005Y-94396097D01*
%TO.N,Net-(J1-Pad10)*%
X150250000Y-107536893D02*
X150250000Y-110150000D01*
X150034807Y-107321700D02*
X150250000Y-107536893D01*
X150034807Y-102904961D02*
X150034807Y-107321700D01*
X151327576Y-96123499D02*
X151304268Y-96216730D01*
X151304268Y-99876038D02*
X151327576Y-96123499D01*
X151304538Y-99876308D02*
X151304268Y-99876038D01*
X152652615Y-99876308D02*
X151304538Y-99876308D01*
D18*
%TO.N,VCC*%
X154462005Y-98979425D02*
X154462005Y-97245487D01*
X154461689Y-98979741D02*
X154462005Y-98979425D01*
X180452777Y-118637313D02*
X180452777Y-116642640D01*
X158194999Y-102850487D02*
X158194999Y-101600000D01*
X164500879Y-103649657D02*
X163710773Y-102859551D01*
X122868599Y-113060000D02*
X125024784Y-110903815D01*
X163710773Y-102859551D02*
X158185935Y-102859551D01*
X184885121Y-120437237D02*
X184885121Y-118724421D01*
X174705000Y-106710000D02*
X169657466Y-106710000D01*
X125016244Y-109002283D02*
X125016244Y-107209748D01*
X164744126Y-103895350D02*
X164499656Y-103650880D01*
X129476917Y-102690947D02*
X129425376Y-102639406D01*
X180452777Y-114937245D02*
X180429413Y-114913881D01*
X140970000Y-101600000D02*
X140970000Y-99660365D01*
X169466407Y-106518941D02*
X169633523Y-106351825D01*
X120113062Y-117314243D02*
X120698731Y-116728574D01*
X184885121Y-118724421D02*
X184853234Y-118692534D01*
X180452777Y-116642640D02*
X180452777Y-114937245D01*
X116261151Y-117314243D02*
X120113062Y-117314243D01*
D20*
X155000000Y-101660000D02*
X154940000Y-101600000D01*
D18*
X184853234Y-118692534D02*
X180507998Y-118692534D01*
X149856831Y-101596831D02*
X149856831Y-97241074D01*
X169633523Y-106351825D02*
X169633523Y-103895350D01*
X180429413Y-114388872D02*
X179367435Y-113326894D01*
X129010252Y-107209748D02*
X129540000Y-106680000D01*
X140970000Y-99660365D02*
X140970000Y-97823710D01*
X174919687Y-110473515D02*
X174687631Y-110241459D01*
X179560696Y-110473515D02*
X174919687Y-110473515D01*
X125024784Y-110903815D02*
X125016244Y-110895275D01*
X154940000Y-101600000D02*
X154461689Y-101121689D01*
X158194999Y-101600000D02*
X158194999Y-99692252D01*
X169633523Y-103895350D02*
X169633523Y-102203394D01*
X140970000Y-101600000D02*
X143510000Y-101600000D01*
X169633523Y-102203394D02*
X169608515Y-102178386D01*
X174705000Y-108423162D02*
X174687631Y-108440531D01*
X120599303Y-116629146D02*
X120599303Y-114984497D01*
X146050000Y-101600000D02*
X146019898Y-101569898D01*
X179367435Y-113326894D02*
X179538393Y-113155936D01*
X158195000Y-97820000D02*
X158194999Y-99692252D01*
X140970000Y-97823710D02*
X140966290Y-97820000D01*
X154461689Y-101121689D02*
X154461689Y-98979741D01*
X125016244Y-107209748D02*
X129010252Y-107209748D01*
X179538393Y-113155936D02*
X179538393Y-112081131D01*
X164500879Y-99589850D02*
X164510083Y-99580646D01*
X135890000Y-101600000D02*
X135890000Y-99950282D01*
X174687631Y-110241459D02*
X174687631Y-108440531D01*
X179538393Y-112081131D02*
X179538393Y-110495818D01*
X120698731Y-116728574D02*
X120599303Y-116629146D01*
X149860000Y-101600000D02*
X149856831Y-101596831D01*
X169657466Y-106710000D02*
X169466407Y-106518941D01*
X120650000Y-114933800D02*
X120599303Y-114984497D01*
X129540000Y-106680000D02*
X129476917Y-106616917D01*
X120650000Y-113060000D02*
X120650000Y-114933800D01*
X164500879Y-101355350D02*
X164500879Y-99589850D01*
X135574144Y-104455856D02*
X135890000Y-104140000D01*
X135890000Y-101600000D02*
X140970000Y-101600000D01*
D19*
X145250000Y-101740273D02*
X145282226Y-101708047D01*
D18*
X146019898Y-101569898D02*
X146019898Y-97219635D01*
X129476917Y-104455856D02*
X129476917Y-102690947D01*
D20*
X155000000Y-110150000D02*
X155000000Y-101660000D01*
D18*
X125016244Y-110895275D02*
X125016244Y-109002283D01*
X135890000Y-104140000D02*
X135890000Y-101600000D01*
X145174179Y-101600000D02*
X145282226Y-101708047D01*
X143510000Y-101600000D02*
X145174179Y-101600000D01*
X143510000Y-101600000D02*
X146050000Y-101600000D01*
X158194999Y-101600000D02*
X154940000Y-101600000D01*
X179538393Y-110495818D02*
X179560696Y-110473515D01*
X164499656Y-103650880D02*
X164500879Y-103649657D01*
D20*
X145050000Y-110150000D02*
X145050000Y-101940273D01*
X145050000Y-101940273D02*
X145282226Y-101708047D01*
D18*
X158185935Y-102859551D02*
X158194999Y-102850487D01*
X135890000Y-99950282D02*
X135867016Y-99927298D01*
X154940000Y-101600000D02*
X149860000Y-101600000D01*
X169633523Y-103895350D02*
X164744126Y-103895350D01*
X146050000Y-101600000D02*
X149860000Y-101600000D01*
X129476917Y-104455856D02*
X135574144Y-104455856D01*
X120650000Y-113060000D02*
X122868599Y-113060000D01*
X180429413Y-114913881D02*
X180429413Y-114388872D01*
X164500879Y-103649657D02*
X164500879Y-101355350D01*
X180507998Y-118692534D02*
X180452777Y-118637313D01*
X174705000Y-106710000D02*
X174705000Y-108423162D01*
X129476917Y-106616917D02*
X129476917Y-104455856D01*
D17*
%TO.N,Net-(J1-Pad11)*%
X146687062Y-92462588D02*
X146665190Y-92604761D01*
X148943107Y-107044570D02*
X148943107Y-102938370D01*
X149750000Y-108295203D02*
X148721237Y-107266440D01*
X148218852Y-94158423D02*
X146687062Y-92462588D01*
X149750000Y-110150000D02*
X149750000Y-108295203D01*
X148721237Y-107266440D02*
X148943107Y-107044570D01*
X148218852Y-97543930D02*
X148218852Y-94158423D01*
D19*
%TO.N,Net-(J1-Pad12)*%
X140153323Y-95297290D02*
X140153323Y-95244145D01*
X143916033Y-99060000D02*
X140153323Y-95297290D01*
X140100178Y-95244145D02*
X140174581Y-95318548D01*
D17*
X148260532Y-103232277D02*
X147943375Y-102915120D01*
X148260532Y-107552162D02*
X148260532Y-103232277D01*
D19*
X144225000Y-99060000D02*
X143916033Y-99060000D01*
D17*
X149250000Y-110150000D02*
X149250000Y-108541630D01*
X149250000Y-108541630D02*
X148260532Y-107552162D01*
D19*
X140153323Y-95244145D02*
X140100178Y-95244145D01*
D17*
%TO.N,Net-(J1-Pad13)*%
X147795933Y-107736540D02*
X147795933Y-105816663D01*
D19*
X147266674Y-105287404D02*
X147197404Y-105287404D01*
D17*
X148750000Y-108690607D02*
X147795933Y-107736540D01*
X148750000Y-110150000D02*
X148750000Y-108690607D01*
D19*
X139143755Y-97933493D02*
X138637267Y-97933493D01*
D17*
X147795933Y-105816663D02*
X147266674Y-105287404D01*
D19*
X138637267Y-97933493D02*
X138167814Y-97696289D01*
X138167814Y-97696289D02*
X138461887Y-97758113D01*
X147266674Y-105356674D02*
X147266674Y-105287404D01*
X147197404Y-105287404D02*
X147320000Y-105410000D01*
%TO.N,Net-(J1-Pad14)*%
X134043620Y-99544649D02*
X132681488Y-99544649D01*
X132660230Y-99565907D02*
X132674402Y-99551735D01*
X146205123Y-105783200D02*
X146187818Y-105839939D01*
D17*
X148250000Y-108827003D02*
X147329251Y-107906254D01*
X146423425Y-105783200D02*
X146205123Y-105783200D01*
D19*
X146515520Y-105839939D02*
X146205123Y-105783200D01*
X132681488Y-99544649D02*
X132660230Y-99544649D01*
X132681488Y-99544649D02*
X132681488Y-99544649D01*
X132660230Y-99544649D02*
X132660230Y-99565907D01*
D17*
X148250000Y-110150000D02*
X148250000Y-108827003D01*
X147329251Y-107906254D02*
X147329251Y-106689026D01*
X147329251Y-106689026D02*
X146423425Y-105783200D01*
%TO.N,Net-(J1-Pad15)*%
X146195654Y-106844931D02*
X146183044Y-106813044D01*
D19*
X126586707Y-101875996D02*
X127580711Y-102870000D01*
D17*
X147750000Y-110150000D02*
X147750000Y-109013604D01*
X147750000Y-109013604D02*
X146879251Y-108142855D01*
X146879251Y-106875422D02*
X146848760Y-106844931D01*
X146848760Y-106844931D02*
X146195654Y-106844931D01*
D19*
X126043018Y-101875996D02*
X126586707Y-101875996D01*
D17*
X146879251Y-108142855D02*
X146879251Y-106875422D01*
%TO.N,Net-(J1-Pad16)*%
X146050000Y-107950000D02*
X147250000Y-109150000D01*
X147250000Y-109150000D02*
X147250000Y-110150000D01*
%TO.N,Net-(J1-Pad17)*%
X118774303Y-114984497D02*
X113615503Y-114984497D01*
X113615503Y-114984497D02*
X113571544Y-115028456D01*
X113571544Y-115028456D02*
X113571544Y-114905859D01*
%TO.N,Net-(J1-Pad18)*%
X113120167Y-117312815D02*
X113247716Y-117312815D01*
X114436151Y-117314243D02*
X113249144Y-117314243D01*
X113249144Y-117314243D02*
X113120167Y-117312815D01*
D19*
%TO.N,Net-(U1-A)*%
X114436151Y-119017742D02*
X113333063Y-119017742D01*
X113314167Y-119017742D02*
X113323615Y-119017742D01*
X113333063Y-119017742D02*
X113181893Y-119027190D01*
X113181893Y-119027190D02*
X113314167Y-119017742D01*
X114436151Y-119017742D02*
X113801298Y-119017742D01*
X113801298Y-119017742D02*
X113789802Y-119029238D01*
D17*
%TO.N,Net-(U2-A)*%
X118825000Y-110572206D02*
X118825000Y-113060000D01*
X118774140Y-110521346D02*
X118825000Y-110572206D01*
D19*
%TO.N,Net-(U4-A)*%
X121966930Y-104549041D02*
X127548824Y-104549041D01*
X121642562Y-104873409D02*
X121966930Y-104549041D01*
%TO.N,Net-(U5-A)*%
X130320700Y-101541359D02*
X130703349Y-101924008D01*
X130703349Y-101924008D02*
X134042497Y-101924008D01*
%TO.N,Net-(U6-A)*%
X139064037Y-99798904D02*
X137088971Y-97823838D01*
X137088971Y-97823838D02*
X134150006Y-97823838D01*
X134134062Y-97807894D02*
X134197836Y-97823838D01*
X134150006Y-97823838D02*
X134134062Y-97807894D01*
X134197836Y-97823838D02*
X134213780Y-97823838D01*
%TO.N,Net-(U7-A)*%
X142287650Y-91970375D02*
X142287650Y-91949116D01*
X142308909Y-91970375D02*
X142287650Y-91970375D01*
X144194898Y-97219635D02*
X144194898Y-93856364D01*
X142287650Y-91949116D02*
X142362054Y-92023520D01*
X144194898Y-93856364D02*
X142308909Y-91970375D01*
D17*
%TO.N,Net-(U8-A)*%
X146818299Y-95690207D02*
X146844898Y-95712823D01*
X146844898Y-95712823D02*
X146851109Y-95706612D01*
%TD*%
M02*
