%TF.GenerationSoftware,KiCad,Pcbnew,7.0.10*%
%TF.CreationDate,2024-03-21T08:15:52-03:00*%
%TF.ProjectId,linefollower,6c696e65-666f-46c6-9c6f-7765722e6b69,rev?*%
%TF.SameCoordinates,Original*%
%TF.FileFunction,Soldermask,Top*%
%TF.FilePolarity,Negative*%
%FSLAX46Y46*%
G04 Gerber Fmt 4.6, Leading zero omitted, Abs format (unit mm)*
G04 Created by KiCad (PCBNEW 7.0.10) date 2024-03-21 08:15:52*
%MOMM*%
%LPD*%
G01*
G04 APERTURE LIST*
G04 Aperture macros list*
%AMRoundRect*
0 Rectangle with rounded corners*
0 $1 Rounding radius*
0 $2 $3 $4 $5 $6 $7 $8 $9 X,Y pos of 4 corners*
0 Add a 4 corners polygon primitive as box body*
4,1,4,$2,$3,$4,$5,$6,$7,$8,$9,$2,$3,0*
0 Add four circle primitives for the rounded corners*
1,1,$1+$1,$2,$3*
1,1,$1+$1,$4,$5*
1,1,$1+$1,$6,$7*
1,1,$1+$1,$8,$9*
0 Add four rect primitives between the rounded corners*
20,1,$1+$1,$2,$3,$4,$5,0*
20,1,$1+$1,$4,$5,$6,$7,0*
20,1,$1+$1,$6,$7,$8,$9,0*
20,1,$1+$1,$8,$9,$2,$3,0*%
G04 Aperture macros list end*
%ADD10RoundRect,0.197500X0.632500X-0.197500X0.632500X0.197500X-0.632500X0.197500X-0.632500X-0.197500X0*%
%ADD11RoundRect,0.197500X-0.632500X0.197500X-0.632500X-0.197500X0.632500X-0.197500X0.632500X0.197500X0*%
G04 APERTURE END LIST*
D10*
%TO.C,U1*%
X107480003Y-118616083D03*
X111480003Y-118616083D03*
X111480003Y-116816083D03*
X107480003Y-116816083D03*
%TD*%
%TO.C,U8*%
X144703264Y-94509794D03*
X148703264Y-94509794D03*
X148703264Y-92709794D03*
X144703264Y-92709794D03*
%TD*%
D11*
%TO.C,U13*%
X179734570Y-101879645D03*
X175734570Y-101879645D03*
X175734570Y-103679645D03*
X179734570Y-103679645D03*
%TD*%
D10*
%TO.C,U6*%
X131841133Y-97336907D03*
X135841133Y-97336907D03*
X135841133Y-95536907D03*
X131841133Y-95536907D03*
%TD*%
%TO.C,U2*%
X111021030Y-113056496D03*
X115021030Y-113056496D03*
X115021030Y-111256496D03*
X111021030Y-111256496D03*
%TD*%
D11*
%TO.C,U14*%
X184697732Y-106235876D03*
X180697732Y-106235876D03*
X180697732Y-108035876D03*
X184697732Y-108035876D03*
%TD*%
D10*
%TO.C,U4*%
X120280603Y-103688132D03*
X124280603Y-103688132D03*
X124280603Y-101888132D03*
X120280603Y-101888132D03*
%TD*%
%TO.C,U5*%
X125827146Y-100096287D03*
X129827146Y-100096287D03*
X129827146Y-98296287D03*
X125827146Y-98296287D03*
%TD*%
D11*
%TO.C,U12*%
X174182544Y-98289660D03*
X170182544Y-98289660D03*
X170182544Y-100089660D03*
X174182544Y-100089660D03*
%TD*%
%TO.C,U16*%
X192549071Y-116825573D03*
X188549071Y-116825573D03*
X188549071Y-118625573D03*
X192549071Y-118625573D03*
%TD*%
D10*
%TO.C,U3*%
X115324742Y-108044946D03*
X119324742Y-108044946D03*
X119324742Y-106244946D03*
X115324742Y-106244946D03*
%TD*%
D11*
%TO.C,U9*%
X155306082Y-92706231D03*
X151306082Y-92706231D03*
X151306082Y-94506231D03*
X155306082Y-94506231D03*
%TD*%
%TO.C,U11*%
X168180981Y-95524452D03*
X164180981Y-95524452D03*
X164180981Y-97324452D03*
X168180981Y-97324452D03*
%TD*%
%TO.C,U7*%
X142162760Y-93656082D03*
X138162760Y-93656082D03*
X138162760Y-95456082D03*
X142162760Y-95456082D03*
%TD*%
%TO.C,U15*%
X189003125Y-111246704D03*
X185003125Y-111246704D03*
X185003125Y-113046704D03*
X189003125Y-113046704D03*
%TD*%
%TO.C,U10*%
X161849245Y-93657506D03*
X157849245Y-93657506D03*
X157849245Y-95457506D03*
X161849245Y-95457506D03*
%TD*%
M02*
